<svg width="21" height="21" viewBox="0 0 21 21" fill="none" xmlns="http://www.w3.org/2000/svg">
<path d="M3.4592 6.20027L9.4592 9.96067C9.6608 10.0867 9.9216 10.1464 10.184 10.1464C10.4464 10.1464 10.7072 10.0867 10.9088 9.96067L16.9088 6.20027C17.3 5.9548 17.6696 5 16.952 5H3.4168C2.6992 5 3.0688 5.9548 3.4592 6.20027ZM17.0904 8.2564L10.9088 12.0149C10.6368 12.1811 10.4464 12.2007 10.184 12.2007C9.9216 12.2007 9.7312 12.1811 9.4592 12.0149C9.1872 11.8488 3.7528 8.5252 3.3088 8.25547C2.9968 8.06507 3 8.28813 3 8.45987V15.2667C3 15.6587 3.4528 16.2 3.8 16.2H16.6C16.9472 16.2 17.4 15.6587 17.4 15.2667V8.4608C17.4 8.28907 17.4032 8.066 17.0904 8.2564Z" fill="currentColor"/>
</svg>
