<svg width="64" height="64" viewBox="0 0 64 64" fill="none" xmlns="http://www.w3.org/2000/svg">
<path d="M27.436 2.3492C19.7903 3.52607 12.8947 7.61087 8.18897 13.7508C3.48324 19.8906 1.33115 27.611 2.18203 35.2998C3.03291 42.9886 6.82098 50.0516 12.7553 55.014C18.6897 59.9764 26.3116 62.4546 34.0296 61.9313C41.7477 61.4079 48.9652 57.9234 54.1753 52.2053C59.3854 46.4872 62.1854 38.9775 61.9905 31.2442C61.7956 23.5109 58.621 16.1518 53.1295 10.7034C47.6379 5.25497 40.254 2.13844 32.5194 2.0045" stroke="#FF8D30" stroke-width="3" stroke-linecap="round"/>
<path d="M23.5625 33.4336H23.7852C24.7227 33.4336 25.5273 33.3203 26.1992 33.0938C26.8789 32.8594 27.4375 32.5234 27.875 32.0859C28.3125 31.6484 28.6367 31.1133 28.8477 30.4805C29.0586 29.8398 29.1641 29.1133 29.1641 28.3008V25.0664C29.1641 24.4492 29.1016 23.9062 28.9766 23.4375C28.8594 22.9688 28.6875 22.582 28.4609 22.2773C28.2422 21.9648 27.9844 21.7305 27.6875 21.5742C27.3984 21.418 27.0781 21.3398 26.7266 21.3398C26.3516 21.3398 26.0195 21.4336 25.7305 21.6211C25.4414 21.8008 25.1953 22.0469 24.9922 22.3594C24.7969 22.6719 24.6445 23.0312 24.5352 23.4375C24.4336 23.8359 24.3828 24.2539 24.3828 24.6914C24.3828 25.1289 24.4336 25.5469 24.5352 25.9453C24.6367 26.3359 24.7891 26.6836 24.9922 26.9883C25.1953 27.2852 25.4492 27.5234 25.7539 27.7031C26.0586 27.875 26.418 27.9609 26.832 27.9609C27.2305 27.9609 27.5859 27.8867 27.8984 27.7383C28.2188 27.582 28.4883 27.3789 28.707 27.1289C28.9336 26.8789 29.1055 26.6016 29.2227 26.2969C29.3477 25.9922 29.4102 25.6836 29.4102 25.3711L30.5234 25.9805C30.5234 26.5273 30.4062 27.0664 30.1719 27.5977C29.9375 28.1289 29.6094 28.6133 29.1875 29.0508C28.7734 29.4805 28.293 29.8242 27.7461 30.082C27.1992 30.3398 26.6133 30.4688 25.9883 30.4688C25.1914 30.4688 24.4844 30.3242 23.8672 30.0352C23.25 29.7383 22.7266 29.332 22.2969 28.8164C21.875 28.293 21.5547 27.6836 21.3359 26.9883C21.1172 26.293 21.0078 25.5391 21.0078 24.7266C21.0078 23.8984 21.1406 23.1211 21.4062 22.3945C21.6797 21.668 22.0664 21.0273 22.5664 20.4727C23.0742 19.918 23.6797 19.4844 24.3828 19.1719C25.0938 18.8516 25.8828 18.6914 26.75 18.6914C27.6172 18.6914 28.4062 18.8594 29.1172 19.1953C29.8281 19.5312 30.4375 20.0078 30.9453 20.625C31.4531 21.2344 31.8438 21.9648 32.1172 22.8164C32.3984 23.668 32.5391 24.6133 32.5391 25.6523V26.8242C32.5391 27.9336 32.418 28.9648 32.1758 29.918C31.9414 30.8711 31.5859 31.7344 31.1094 32.5078C30.6406 33.2734 30.0547 33.9297 29.3516 34.4766C28.6562 35.0234 27.8477 35.4414 26.9258 35.7305C26.0039 36.0195 24.9727 36.1641 23.832 36.1641H23.5625V33.4336ZM37.3438 33.4336H37.5664C38.5039 33.4336 39.3086 33.3203 39.9805 33.0938C40.6602 32.8594 41.2188 32.5234 41.6562 32.0859C42.0938 31.6484 42.418 31.1133 42.6289 30.4805C42.8398 29.8398 42.9453 29.1133 42.9453 28.3008V25.0664C42.9453 24.4492 42.8828 23.9062 42.7578 23.4375C42.6406 22.9688 42.4688 22.582 42.2422 22.2773C42.0234 21.9648 41.7656 21.7305 41.4688 21.5742C41.1797 21.418 40.8594 21.3398 40.5078 21.3398C40.1328 21.3398 39.8008 21.4336 39.5117 21.6211C39.2227 21.8008 38.9766 22.0469 38.7734 22.3594C38.5781 22.6719 38.4258 23.0312 38.3164 23.4375C38.2148 23.8359 38.1641 24.2539 38.1641 24.6914C38.1641 25.1289 38.2148 25.5469 38.3164 25.9453C38.418 26.3359 38.5703 26.6836 38.7734 26.9883C38.9766 27.2852 39.2305 27.5234 39.5352 27.7031C39.8398 27.875 40.1992 27.9609 40.6133 27.9609C41.0117 27.9609 41.3672 27.8867 41.6797 27.7383C42 27.582 42.2695 27.3789 42.4883 27.1289C42.7148 26.8789 42.8867 26.6016 43.0039 26.2969C43.1289 25.9922 43.1914 25.6836 43.1914 25.3711L44.3047 25.9805C44.3047 26.5273 44.1875 27.0664 43.9531 27.5977C43.7188 28.1289 43.3906 28.6133 42.9688 29.0508C42.5547 29.4805 42.0742 29.8242 41.5273 30.082C40.9805 30.3398 40.3945 30.4688 39.7695 30.4688C38.9727 30.4688 38.2656 30.3242 37.6484 30.0352C37.0312 29.7383 36.5078 29.332 36.0781 28.8164C35.6562 28.293 35.3359 27.6836 35.1172 26.9883C34.8984 26.293 34.7891 25.5391 34.7891 24.7266C34.7891 23.8984 34.9219 23.1211 35.1875 22.3945C35.4609 21.668 35.8477 21.0273 36.3477 20.4727C36.8555 19.918 37.4609 19.4844 38.1641 19.1719C38.875 18.8516 39.6641 18.6914 40.5312 18.6914C41.3984 18.6914 42.1875 18.8594 42.8984 19.1953C43.6094 19.5312 44.2188 20.0078 44.7266 20.625C45.2344 21.2344 45.625 21.9648 45.8984 22.8164C46.1797 23.668 46.3203 24.6133 46.3203 25.6523V26.8242C46.3203 27.9336 46.1992 28.9648 45.957 29.918C45.7227 30.8711 45.3672 31.7344 44.8906 32.5078C44.4219 33.2734 43.8359 33.9297 43.1328 34.4766C42.4375 35.0234 41.6289 35.4414 40.707 35.7305C39.7852 36.0195 38.7539 36.1641 37.6133 36.1641H37.3438V33.4336Z" fill="#1D2E5B"/>
<line opacity="0.1" x1="17" y1="38.5" x2="48" y2="38.5" stroke="black"/>
<path opacity="0.4" d="M22.3379 42.5V53H21.0664V42.5H22.3379ZM27.4375 53.1367C26.9225 53.1367 26.4554 53.0501 26.0361 52.877C25.6214 52.6992 25.2637 52.4508 24.9629 52.1318C24.6667 51.8128 24.4388 51.4346 24.2793 50.9971C24.1198 50.5596 24.04 50.0811 24.04 49.5615V49.2744C24.04 48.6729 24.1289 48.1374 24.3066 47.668C24.4844 47.194 24.7259 46.793 25.0312 46.4648C25.3366 46.1367 25.6829 45.8883 26.0703 45.7197C26.4577 45.5511 26.8587 45.4668 27.2734 45.4668C27.8021 45.4668 28.2578 45.5579 28.6406 45.7402C29.028 45.9225 29.3447 46.1777 29.5908 46.5059C29.8369 46.8294 30.0192 47.2122 30.1377 47.6543C30.2562 48.0918 30.3154 48.5703 30.3154 49.0898V49.6572H24.792V48.625H29.0508V48.5293C29.0326 48.2012 28.9642 47.8822 28.8457 47.5723C28.7318 47.2624 28.5495 47.0072 28.2988 46.8066C28.0482 46.6061 27.7064 46.5059 27.2734 46.5059C26.9863 46.5059 26.722 46.5674 26.4805 46.6904C26.2389 46.8089 26.0316 46.9867 25.8584 47.2236C25.6852 47.4606 25.5508 47.75 25.4551 48.0918C25.3594 48.4336 25.3115 48.8278 25.3115 49.2744V49.5615C25.3115 49.9124 25.3594 50.2428 25.4551 50.5527C25.5553 50.8581 25.6989 51.127 25.8857 51.3594C26.0771 51.5918 26.3073 51.7741 26.5762 51.9062C26.8496 52.0384 27.1595 52.1045 27.5059 52.1045C27.9525 52.1045 28.3307 52.0133 28.6406 51.8311C28.9505 51.6488 29.2217 51.4049 29.4541 51.0996L30.2197 51.708C30.0602 51.9495 29.8574 52.1797 29.6113 52.3984C29.3652 52.6172 29.0622 52.7949 28.7021 52.9316C28.3467 53.0684 27.9251 53.1367 27.4375 53.1367ZM33.9453 51.8584L35.9688 45.6035H37.2607L34.6016 53H33.7539L33.9453 51.8584ZM32.2568 45.6035L34.3418 51.8926L34.4854 53H33.6377L30.958 45.6035H32.2568ZM41.4512 53.1367C40.9362 53.1367 40.4691 53.0501 40.0498 52.877C39.6351 52.6992 39.2773 52.4508 38.9766 52.1318C38.6803 51.8128 38.4525 51.4346 38.293 50.9971C38.1335 50.5596 38.0537 50.0811 38.0537 49.5615V49.2744C38.0537 48.6729 38.1426 48.1374 38.3203 47.668C38.498 47.194 38.7396 46.793 39.0449 46.4648C39.3503 46.1367 39.6966 45.8883 40.084 45.7197C40.4714 45.5511 40.8724 45.4668 41.2871 45.4668C41.8158 45.4668 42.2715 45.5579 42.6543 45.7402C43.0417 45.9225 43.3584 46.1777 43.6045 46.5059C43.8506 46.8294 44.0329 47.2122 44.1514 47.6543C44.2699 48.0918 44.3291 48.5703 44.3291 49.0898V49.6572H38.8057V48.625H43.0645V48.5293C43.0462 48.2012 42.9779 47.8822 42.8594 47.5723C42.7454 47.2624 42.5632 47.0072 42.3125 46.8066C42.0618 46.6061 41.7201 46.5059 41.2871 46.5059C41 46.5059 40.7357 46.5674 40.4941 46.6904C40.2526 46.8089 40.0452 46.9867 39.8721 47.2236C39.6989 47.4606 39.5645 47.75 39.4688 48.0918C39.373 48.4336 39.3252 48.8278 39.3252 49.2744V49.5615C39.3252 49.9124 39.373 50.2428 39.4688 50.5527C39.569 50.8581 39.7126 51.127 39.8994 51.3594C40.0908 51.5918 40.321 51.7741 40.5898 51.9062C40.8633 52.0384 41.1732 52.1045 41.5195 52.1045C41.9661 52.1045 42.3444 52.0133 42.6543 51.8311C42.9642 51.6488 43.2354 51.4049 43.4678 51.0996L44.2334 51.708C44.0739 51.9495 43.8711 52.1797 43.625 52.3984C43.3789 52.6172 43.0758 52.7949 42.7158 52.9316C42.3604 53.0684 41.9388 53.1367 41.4512 53.1367ZM47.1797 42.5V53H45.9082V42.5H47.1797Z" fill="black"/>
</svg>
