<svg width="61" height="60" viewBox="0 0 61 60" fill="none" xmlns="http://www.w3.org/2000/svg">
<circle cx="30.2979" cy="30" r="30" fill="black" fill-opacity="0.6"/>
<path d="M22.8482 3.00922C16.0736 4.87906 10.2499 9.22814 6.53336 15.1929C2.81684 21.1577 1.47931 28.302 2.78633 35.2073C4.09335 42.1126 7.94934 48.2739 13.5887 52.4678C19.228 56.6618 26.2383 58.5817 33.2276 57.8463C40.2169 57.1109 46.6742 53.7741 51.3172 48.4983C55.9602 43.2226 58.4494 36.3937 58.2907 29.3676C58.132 22.3415 55.3368 15.632 50.4603 10.5713C45.5838 5.51057 38.9825 2.46876 31.9671 2.0498" stroke="#4D99D6" stroke-width="4" stroke-linecap="round"/>
<path d="M20.8604 32.4336H21.083C22.0205 32.4336 22.8252 32.3203 23.4971 32.0938C24.1768 31.8594 24.7354 31.5234 25.1729 31.0859C25.6104 30.6484 25.9346 30.1133 26.1455 29.4805C26.3564 28.8398 26.4619 28.1133 26.4619 27.3008V24.0664C26.4619 23.4492 26.3994 22.9062 26.2744 22.4375C26.1572 21.9688 25.9854 21.582 25.7588 21.2773C25.54 20.9648 25.2822 20.7305 24.9854 20.5742C24.6963 20.418 24.376 20.3398 24.0244 20.3398C23.6494 20.3398 23.3174 20.4336 23.0283 20.6211C22.7393 20.8008 22.4932 21.0469 22.29 21.3594C22.0947 21.6719 21.9424 22.0312 21.833 22.4375C21.7314 22.8359 21.6807 23.2539 21.6807 23.6914C21.6807 24.1289 21.7314 24.5469 21.833 24.9453C21.9346 25.3359 22.0869 25.6836 22.29 25.9883C22.4932 26.2852 22.7471 26.5234 23.0518 26.7031C23.3564 26.875 23.7158 26.9609 24.1299 26.9609C24.5283 26.9609 24.8838 26.8867 25.1963 26.7383C25.5166 26.582 25.7861 26.3789 26.0049 26.1289C26.2314 25.8789 26.4033 25.6016 26.5205 25.2969C26.6455 24.9922 26.708 24.6836 26.708 24.3711L27.8213 24.9805C27.8213 25.5273 27.7041 26.0664 27.4697 26.5977C27.2354 27.1289 26.9072 27.6133 26.4854 28.0508C26.0713 28.4805 25.5908 28.8242 25.0439 29.082C24.4971 29.3398 23.9111 29.4688 23.2861 29.4688C22.4893 29.4688 21.7822 29.3242 21.165 29.0352C20.5479 28.7383 20.0244 28.332 19.5947 27.8164C19.1729 27.293 18.8525 26.6836 18.6338 25.9883C18.415 25.293 18.3057 24.5391 18.3057 23.7266C18.3057 22.8984 18.4385 22.1211 18.7041 21.3945C18.9775 20.668 19.3643 20.0273 19.8643 19.4727C20.3721 18.918 20.9775 18.4844 21.6807 18.1719C22.3916 17.8516 23.1807 17.6914 24.0479 17.6914C24.915 17.6914 25.7041 17.8594 26.415 18.1953C27.126 18.5312 27.7354 19.0078 28.2432 19.625C28.751 20.2344 29.1416 20.9648 29.415 21.8164C29.6963 22.668 29.8369 23.6133 29.8369 24.6523V25.8242C29.8369 26.9336 29.7158 27.9648 29.4736 28.918C29.2393 29.8711 28.8838 30.7344 28.4072 31.5078C27.9385 32.2734 27.3525 32.9297 26.6494 33.4766C25.9541 34.0234 25.1455 34.4414 24.2236 34.7305C23.3018 35.0195 22.2705 35.1641 21.1299 35.1641H20.8604V32.4336ZM34.6416 32.4336H34.8643C35.8018 32.4336 36.6064 32.3203 37.2783 32.0938C37.958 31.8594 38.5166 31.5234 38.9541 31.0859C39.3916 30.6484 39.7158 30.1133 39.9268 29.4805C40.1377 28.8398 40.2432 28.1133 40.2432 27.3008V24.0664C40.2432 23.4492 40.1807 22.9062 40.0557 22.4375C39.9385 21.9688 39.7666 21.582 39.54 21.2773C39.3213 20.9648 39.0635 20.7305 38.7666 20.5742C38.4775 20.418 38.1572 20.3398 37.8057 20.3398C37.4307 20.3398 37.0986 20.4336 36.8096 20.6211C36.5205 20.8008 36.2744 21.0469 36.0713 21.3594C35.876 21.6719 35.7236 22.0312 35.6143 22.4375C35.5127 22.8359 35.4619 23.2539 35.4619 23.6914C35.4619 24.1289 35.5127 24.5469 35.6143 24.9453C35.7158 25.3359 35.8682 25.6836 36.0713 25.9883C36.2744 26.2852 36.5283 26.5234 36.833 26.7031C37.1377 26.875 37.4971 26.9609 37.9111 26.9609C38.3096 26.9609 38.665 26.8867 38.9775 26.7383C39.2979 26.582 39.5674 26.3789 39.7861 26.1289C40.0127 25.8789 40.1846 25.6016 40.3018 25.2969C40.4268 24.9922 40.4893 24.6836 40.4893 24.3711L41.6025 24.9805C41.6025 25.5273 41.4854 26.0664 41.251 26.5977C41.0166 27.1289 40.6885 27.6133 40.2666 28.0508C39.8525 28.4805 39.3721 28.8242 38.8252 29.082C38.2783 29.3398 37.6924 29.4688 37.0674 29.4688C36.2705 29.4688 35.5635 29.3242 34.9463 29.0352C34.3291 28.7383 33.8057 28.332 33.376 27.8164C32.9541 27.293 32.6338 26.6836 32.415 25.9883C32.1963 25.293 32.0869 24.5391 32.0869 23.7266C32.0869 22.8984 32.2197 22.1211 32.4854 21.3945C32.7588 20.668 33.1455 20.0273 33.6455 19.4727C34.1533 18.918 34.7588 18.4844 35.4619 18.1719C36.1729 17.8516 36.9619 17.6914 37.8291 17.6914C38.6963 17.6914 39.4854 17.8594 40.1963 18.1953C40.9072 18.5312 41.5166 19.0078 42.0244 19.625C42.5322 20.2344 42.9229 20.9648 43.1963 21.8164C43.4775 22.668 43.6182 23.6133 43.6182 24.6523V25.8242C43.6182 26.9336 43.4971 27.9648 43.2549 28.918C43.0205 29.8711 42.665 30.7344 42.1885 31.5078C41.7197 32.2734 41.1338 32.9297 40.4307 33.4766C39.7354 34.0234 38.9268 34.4414 38.0049 34.7305C37.083 35.0195 36.0518 35.1641 34.9111 35.1641H34.6416V32.4336Z" fill="white"/>
<path d="M19.6357 40.5V51H18.3643V40.5H19.6357ZM24.7354 51.1367C24.2204 51.1367 23.7533 51.0501 23.334 50.877C22.9193 50.6992 22.5615 50.4508 22.2607 50.1318C21.9645 49.8128 21.7367 49.4346 21.5771 48.9971C21.4176 48.5596 21.3379 48.0811 21.3379 47.5615V47.2744C21.3379 46.6729 21.4268 46.1374 21.6045 45.668C21.7822 45.194 22.0238 44.793 22.3291 44.4648C22.6344 44.1367 22.9808 43.8883 23.3682 43.7197C23.7555 43.5511 24.1566 43.4668 24.5713 43.4668C25.0999 43.4668 25.5557 43.5579 25.9385 43.7402C26.3258 43.9225 26.6426 44.1777 26.8887 44.5059C27.1348 44.8294 27.3171 45.2122 27.4355 45.6543C27.554 46.0918 27.6133 46.5703 27.6133 47.0898V47.6572H22.0898V46.625H26.3486V46.5293C26.3304 46.2012 26.262 45.8822 26.1436 45.5723C26.0296 45.2624 25.8473 45.0072 25.5967 44.8066C25.346 44.6061 25.0042 44.5059 24.5713 44.5059C24.2842 44.5059 24.0199 44.5674 23.7783 44.6904C23.5368 44.8089 23.3294 44.9867 23.1562 45.2236C22.9831 45.4606 22.8486 45.75 22.7529 46.0918C22.6572 46.4336 22.6094 46.8278 22.6094 47.2744V47.5615C22.6094 47.9124 22.6572 48.2428 22.7529 48.5527C22.8532 48.8581 22.9967 49.127 23.1836 49.3594C23.375 49.5918 23.6051 49.7741 23.874 49.9062C24.1475 50.0384 24.4574 50.1045 24.8037 50.1045C25.2503 50.1045 25.6286 50.0133 25.9385 49.8311C26.2484 49.6488 26.5195 49.4049 26.752 49.0996L27.5176 49.708C27.3581 49.9495 27.1553 50.1797 26.9092 50.3984C26.6631 50.6172 26.36 50.7949 26 50.9316C25.6445 51.0684 25.223 51.1367 24.7354 51.1367ZM31.2432 49.8584L33.2666 43.6035H34.5586L31.8994 51H31.0518L31.2432 49.8584ZM29.5547 43.6035L31.6396 49.8926L31.7832 51H30.9355L28.2559 43.6035H29.5547ZM38.749 51.1367C38.234 51.1367 37.7669 51.0501 37.3477 50.877C36.9329 50.6992 36.5752 50.4508 36.2744 50.1318C35.9782 49.8128 35.7503 49.4346 35.5908 48.9971C35.4313 48.5596 35.3516 48.0811 35.3516 47.5615V47.2744C35.3516 46.6729 35.4404 46.1374 35.6182 45.668C35.7959 45.194 36.0374 44.793 36.3428 44.4648C36.6481 44.1367 36.9945 43.8883 37.3818 43.7197C37.7692 43.5511 38.1702 43.4668 38.585 43.4668C39.1136 43.4668 39.5693 43.5579 39.9521 43.7402C40.3395 43.9225 40.6562 44.1777 40.9023 44.5059C41.1484 44.8294 41.3307 45.2122 41.4492 45.6543C41.5677 46.0918 41.627 46.5703 41.627 47.0898V47.6572H36.1035V46.625H40.3623V46.5293C40.3441 46.2012 40.2757 45.8822 40.1572 45.5723C40.0433 45.2624 39.861 45.0072 39.6104 44.8066C39.3597 44.6061 39.0179 44.5059 38.585 44.5059C38.2979 44.5059 38.0335 44.5674 37.792 44.6904C37.5505 44.8089 37.3431 44.9867 37.1699 45.2236C36.9967 45.4606 36.8623 45.75 36.7666 46.0918C36.6709 46.4336 36.623 46.8278 36.623 47.2744V47.5615C36.623 47.9124 36.6709 48.2428 36.7666 48.5527C36.8669 48.8581 37.0104 49.127 37.1973 49.3594C37.3887 49.5918 37.6188 49.7741 37.8877 49.9062C38.1611 50.0384 38.471 50.1045 38.8174 50.1045C39.264 50.1045 39.6423 50.0133 39.9521 49.8311C40.262 49.6488 40.5332 49.4049 40.7656 49.0996L41.5312 49.708C41.3717 49.9495 41.1689 50.1797 40.9229 50.3984C40.6768 50.6172 40.3737 50.7949 40.0137 50.9316C39.6582 51.0684 39.2367 51.1367 38.749 51.1367ZM44.4775 40.5V51H43.2061V40.5H44.4775Z" fill="white"/>
<line opacity="0.3" x1="15.2979" y1="36.5" x2="45.2979" y2="36.5" stroke="white"/>
</svg>
