<svg width="21" height="21" viewBox="0 0 21 21" fill="none" xmlns="http://www.w3.org/2000/svg">
<path d="M10.9741 9.42388C10.9741 9.61288 11.1277 9.76138 11.3155 9.76138C11.7047 9.76138 12.0187 10.0753 12.0187 10.4566C12.0187 10.6423 12.1724 10.7941 12.3601 10.7941C12.5479 10.7941 12.7015 10.6423 12.7015 10.4566C12.7015 9.70064 12.0802 9.08638 11.3155 9.08638C11.1277 9.08638 10.9741 9.23826 10.9741 9.42388ZM16.5318 10.7941C16.723 10.7941 16.8732 10.6423 16.8732 10.4566C16.8732 7.42589 14.3811 4.96214 11.3155 4.96214C11.1277 4.96214 10.9741 5.114 10.9741 5.29964C10.9741 5.48526 11.1277 5.63714 11.3155 5.63714C14.0056 5.63714 16.1904 7.80051 16.1904 10.4566C16.1904 10.6423 16.344 10.7941 16.5318 10.7941Z" fill="#161C35"/>
<path d="M14.1047 10.4566C14.1047 10.6422 14.2583 10.7941 14.446 10.7941C14.6338 10.7941 14.7874 10.6422 14.7874 10.4566C14.7874 8.56326 13.2307 7.02426 11.3156 7.02426C11.1278 7.02426 10.9742 7.17613 10.9742 7.36176C10.9742 7.55076 11.1278 7.69926 11.3156 7.69926C12.8552 7.69926 14.1047 8.93788 14.1047 10.4566ZM11.3156 2.89999C11.1278 2.89999 10.9742 3.05187 10.9742 3.23749C10.9742 3.42314 11.1278 3.57499 11.3156 3.57499C15.1561 3.57499 18.2797 6.66313 18.2797 10.4566C18.2797 10.6422 18.43 10.7941 18.6211 10.7941C18.8089 10.7941 18.9625 10.6422 18.9625 10.4566C18.9625 6.28851 15.5316 2.89999 11.3156 2.89999ZM14.6509 14.0139L14.2037 14.2535C13.4492 14.6619 12.8621 15.7812 11.9311 14.9375L9.50006 12.5L7.39999 10.4566C6.3449 9.1235 7.5263 8.80625 7.93936 8.05701L8.18174 7.61826C8.45484 7.11875 8.55383 6.5585 8.47191 5.99824C8.3934 5.438 8.13736 4.92837 7.7277 4.52337C7.2293 4.03063 6.56703 3.76064 5.86037 3.76064C5.15371 3.76064 4.48802 4.03063 3.9896 4.52337L3.81551 4.69888C2.89378 5.61013 2.78796 7.17949 3.51509 9.1235C4.20125 10.9797 5.58385 12.9913 7.39999 14.7868C10.1686 17.5239 13.2512 19.1 15.4634 19.1C16.3373 19.1 17.0781 18.8536 17.6038 18.3339L17.7813 18.1584C18.2763 17.669 18.5528 17.0143 18.5563 16.3089C18.5528 15.6204 18.2695 14.9454 17.7813 14.4628C16.9586 13.6494 15.6716 13.4671 14.6509 14.0139Z" fill="currentColor"/>
</svg>
