<svg width="37" height="26" viewBox="0 0 37 26" xmlns="http://www.w3.org/2000/svg" aria-hidden="true">
  <path fill-rule="evenodd" clip-rule="evenodd"
        d="M18.6996 -2C13.1067 -2 7.50036 -1.05466 5.46614 0.829548C3.77839 2.39273 3.21578 5.15428 3.02614 6.90276C3.02614 6.90276 3 7.07555 3 7.14987C3 7.83552 3.5886 8.38543 4.30824 8.38543C4.39327 8.38543 7.53975 8.14444 9.43673 7.9962C9.48238 7.98995 9.52839 7.98383 9.57403 7.97152C10.2806 7.95309 10.8498 7.4093 10.8498 6.73596L10.8561 4.3017C10.8561 3.54798 11.504 2.94244 12.3021 2.94244H25.097C25.8953 2.94244 26.5432 3.54792 26.5432 4.3017L26.5496 6.73596C26.5496 7.4093 27.1188 7.95309 27.8252 7.97152C27.8706 7.9839 27.9166 7.98995 27.9628 7.9962C29.8599 8.14437 33.0063 8.38543 33.091 8.38543C33.8104 8.38543 34.3994 7.83552 34.3994 7.14987C34.3994 7.07555 34.3733 6.90276 34.3733 6.90276C34.1835 5.15428 33.6215 2.3928 31.9337 0.829548C29.8988 -1.05466 24.2925 -2 18.6996 -2ZM18.6996 14.0632C17.2539 14.0632 16.083 15.169 16.083 16.5344C16.083 17.8997 17.2539 19.0055 18.6996 19.0055C20.1453 19.0055 21.3162 17.8997 21.3162 16.5344C21.3162 15.169 20.1453 14.0632 18.6996 14.0632ZM16.7372 8.50274V6.95825C16.7372 6.10574 16.0044 5.41377 15.1018 5.41377C14.1992 5.41377 13.4665 6.1058 13.4665 6.95825V8.50274L4.6416 17.4055C4.03349 17.9678 3.65398 18.7522 3.65398 19.6173V22.0948C3.65398 23.4602 4.82498 24.5659 6.2706 24.5659H6.92479V26.1106C6.92479 26.963 7.65761 27.6549 8.5602 27.6549C9.46279 27.6549 10.1955 26.963 10.1955 26.1106V24.5659H27.2037V26.1106C27.2037 26.963 27.9362 27.6549 28.8391 27.6549C29.7417 27.6549 30.4743 26.963 30.4743 26.1106V24.5659H31.1285C32.5742 24.5659 33.7451 23.4602 33.7451 22.0948V19.6173C33.7451 18.7521 33.3656 17.9677 32.7575 17.4055L23.9329 8.50274V6.95825C23.9329 6.10574 23.2 5.41377 22.2974 5.41377C21.3949 5.41377 20.6622 6.1058 20.6622 6.95825V8.50274H16.7372ZM18.6996 11.5919C21.591 11.5919 23.9329 13.8037 23.9329 16.5344C23.9329 19.2651 21.5911 21.477 18.6996 21.477C15.8082 21.477 13.4664 19.2652 13.4664 16.5344C13.4664 13.8036 15.8082 11.5919 18.6996 11.5919Z"
        fill="currentColor"/>
</svg>
