<svg xmlns="http://www.w3.org/2000/svg" xmlns:xlink="http://www.w3.org/1999/xlink"><symbol id="bicycle" viewBox="0 0 25 25">
  <path d="M19.2432 21.875C18.3547 21.875 17.4862 21.6115 16.7474 21.1179C16.0087 20.6243 15.4329 19.9227 15.0929 19.1019C14.7529 18.2811 14.664 17.3778 14.8373 16.5064C15.0106 15.635 15.4385 14.8346 16.0667 14.2064C16.695 13.5781 17.4954 13.1503 18.3668 12.9769C19.2382 12.8036 20.1414 12.8926 20.9623 13.2326C21.7831 13.5726 22.4847 14.1484 22.9783 14.8871C23.4719 15.6258 23.7354 16.4943 23.7354 17.3828C23.7341 18.5738 23.2604 19.7157 22.4182 20.5578C21.576 21.4 20.4342 21.8737 19.2432 21.875ZM19.2432 14.4531C18.6637 14.4531 18.0973 14.6249 17.6155 14.9469C17.1337 15.2688 16.7582 15.7263 16.5365 16.2617C16.3147 16.797 16.2567 17.3861 16.3698 17.9544C16.4828 18.5227 16.7618 19.0447 17.1716 19.4544C17.5813 19.8641 18.1033 20.1432 18.6716 20.2562C19.2399 20.3692 19.829 20.3112 20.3643 20.0895C20.8996 19.8678 21.3572 19.4922 21.6791 19.0105C22.001 18.5287 22.1729 17.9623 22.1729 17.3828C22.1719 16.6061 21.863 15.8614 21.3138 15.3122C20.7645 14.763 20.0199 14.454 19.2432 14.4531Z" fill="currentColor"/>
  <path d="M6.35254 21.875C5.46407 21.875 4.59555 21.6115 3.85682 21.1179C3.11808 20.6243 2.5423 19.9227 2.2023 19.1019C1.8623 18.2811 1.77334 17.3778 1.94667 16.5064C2.12 15.635 2.54784 14.8346 3.17608 14.2064C3.80433 13.5781 4.60476 13.1503 5.47616 12.9769C6.34756 12.8036 7.25079 12.8926 8.07163 13.2326C8.89247 13.5726 9.59405 14.1484 10.0877 14.8871C10.5813 15.6258 10.8447 16.4943 10.8447 17.3828C10.8434 18.5738 10.3697 19.7157 9.52757 20.5578C8.6854 21.4 7.54355 21.8737 6.35254 21.875ZM6.35254 14.4531C5.7731 14.4531 5.20668 14.6249 4.72489 14.9469C4.24311 15.2688 3.8676 15.7263 3.64586 16.2617C3.42412 16.797 3.3661 17.3861 3.47915 17.9544C3.59219 18.5227 3.87122 19.0447 4.28094 19.4544C4.69066 19.8641 5.21268 20.1432 5.78099 20.2562C6.34929 20.3692 6.93835 20.3112 7.47368 20.0895C8.00901 19.8678 8.46657 19.4922 8.78849 19.0105C9.11041 18.5287 9.28223 17.9623 9.28223 17.3828C9.28132 16.6061 8.97237 15.8614 8.42314 15.3122C7.87392 14.763 7.12926 14.454 6.35254 14.4531Z" fill="currentColor"/>
  <path d="M15.9229 6.25005C16.1287 6.25076 16.3326 6.21067 16.5228 6.1321C16.713 6.05352 16.8857 5.93802 17.031 5.79227C17.1763 5.64651 17.2913 5.47341 17.3693 5.28295C17.4473 5.09249 17.4867 4.88847 17.4854 4.68267C17.4876 4.4779 17.4491 4.27473 17.3719 4.08504C17.2947 3.89535 17.1805 3.72295 17.036 3.57792C16.8914 3.43289 16.7193 3.31814 16.5299 3.24038C16.3404 3.16262 16.1374 3.12341 15.9326 3.12505C15.7274 3.12441 15.5241 3.16419 15.3343 3.24212C15.1445 3.32005 14.9719 3.4346 14.8263 3.57924C14.6808 3.72388 14.5652 3.89577 14.486 4.0851C14.4069 4.27442 14.3659 4.47748 14.3652 4.68267C14.3646 4.88786 14.4044 5.09116 14.4823 5.28098C14.5602 5.4708 14.6748 5.64341 14.8194 5.78895C14.9641 5.9345 15.136 6.05013 15.3253 6.12924C15.5146 6.20836 15.7177 6.24941 15.9229 6.25005Z" fill="currentColor"/>
  <path d="M18.2446 9.37504H16.1079C16.0729 9.37505 16.0385 9.36563 16.0083 9.34776C15.9781 9.32989 15.9533 9.30423 15.9365 9.27348L14.3867 6.43315C14.2775 6.22207 14.1202 6.03967 13.9274 5.90071C13.7346 5.76175 13.5118 5.67014 13.277 5.6333C13.0422 5.59645 12.8021 5.6154 12.576 5.68862C12.3499 5.76183 12.1442 5.88725 11.9756 6.05473L8.56445 9.49223C8.27788 9.78473 8.11521 10.1765 8.11035 10.586C8.11035 11.4356 8.72559 11.7383 9.01367 11.9092C10.4053 12.711 11.3853 13.2974 11.9229 13.6231C11.9514 13.6405 11.9751 13.6649 11.9915 13.6941C12.0079 13.7233 12.0165 13.7561 12.0166 13.7896V17.1646C12.0166 17.585 12.3398 17.9458 12.7603 17.9668C12.8658 17.9719 12.9713 17.9555 13.0703 17.9187C13.1694 17.8818 13.2599 17.8253 13.3364 17.7524C13.413 17.6796 13.474 17.5919 13.5157 17.4949C13.5574 17.3978 13.579 17.2932 13.5791 17.1875V12.9883C13.5792 12.8643 13.5497 12.742 13.4932 12.6317C13.4366 12.5213 13.3546 12.426 13.2539 12.3536L11.4473 11.0542C11.4246 11.038 11.4056 11.0171 11.3917 10.993C11.3778 10.9688 11.3692 10.942 11.3665 10.9142C11.3638 10.8864 11.3671 10.8584 11.3762 10.8321C11.3852 10.8057 11.3998 10.7815 11.4189 10.7613L13.4697 8.57426C13.4908 8.55176 13.5168 8.53455 13.5457 8.52404C13.5747 8.51352 13.6057 8.51001 13.6363 8.51377C13.6668 8.51753 13.6961 8.52846 13.7216 8.54568C13.7472 8.5629 13.7683 8.58591 13.7832 8.61284L14.8486 10.5357C14.9163 10.6576 15.0155 10.7591 15.1357 10.8298C15.2559 10.9005 15.3928 10.9377 15.5322 10.9375H18.2666C18.3724 10.9377 18.4772 10.9163 18.5745 10.8747C18.6718 10.8331 18.7597 10.7722 18.8328 10.6956C18.9058 10.619 18.9626 10.5284 18.9995 10.4292C19.0365 10.3301 19.0529 10.2244 19.0479 10.1187C19.0273 9.69829 18.665 9.37504 18.2446 9.37504Z" fill="currentColor"/>
</symbol><symbol id="burger" viewBox="0 0 25 11"><g fill="none">
<rect width="25" height="3" rx="1.5" fill="currentColor"/>
<rect y="8" width="25" height="3" rx="1.5" fill="currentColor"/>
</g></symbol><symbol id="bus" viewBox="0 0 25 25">
  <g transform="translate(3 2.5)">
    <path d="M4.79891 13.5714C4.79891 13.1771 4.65248 12.8404 4.35964 12.5614C4.06679 12.2824 3.71342 12.1429 3.29953 12.1429C2.88564 12.1429 2.53227 12.2824 2.23943 12.5614C1.94658 12.8404 1.80016 13.1771 1.80016 13.5714C1.80016 13.9658 1.94658 14.3025 2.23943 14.5815C2.53227 14.8605 2.88564 15 3.29953 15C3.71342 15 4.06679 14.8605 4.35964 14.5815C4.65248 14.3025 4.79891 13.9658 4.79891 13.5714ZM16.7939 13.5714C16.7939 13.1771 16.6475 12.8404 16.3546 12.5614C16.0618 12.2824 15.7084 12.1429 15.2945 12.1429C14.8806 12.1429 14.5273 12.2824 14.2344 12.5614C13.9416 12.8404 13.7952 13.1771 13.7952 13.5714C13.7952 13.9658 13.9416 14.3025 14.2344 14.5815C14.5273 14.8605 14.8806 15 15.2945 15C15.7084 15 16.0618 14.8605 16.3546 14.5815C16.6475 14.3025 16.7939 13.9658 16.7939 13.5714ZM16.2551 9.15179L15.4117 4.86607C15.3726 4.69494 15.2848 4.55543 15.1481 4.44754C15.0114 4.33966 14.8533 4.28571 14.6737 4.28571H3.92037C3.74075 4.28571 3.58262 4.33966 3.44596 4.44754C3.30929 4.55543 3.22144 4.69494 3.18239 4.86607L2.33899 9.15179C2.29995 9.375 2.35461 9.57217 2.50299 9.7433C2.65136 9.91443 2.84269 10 3.07697 10H15.5171C15.7514 10 15.9427 9.91443 16.0911 9.7433C16.2395 9.57217 16.2941 9.375 16.2551 9.15179ZM13.6077 2.32143C13.6077 2.17262 13.5531 2.04613 13.4437 1.94196C13.3344 1.8378 13.2017 1.78571 13.0455 1.78571H5.54859C5.39241 1.78571 5.25965 1.8378 5.15032 1.94196C5.04099 2.04613 4.98633 2.17262 4.98633 2.32143C4.98633 2.47024 5.04099 2.59673 5.15032 2.70089C5.25965 2.80506 5.39241 2.85714 5.54859 2.85714H13.0455C13.2017 2.85714 13.3344 2.80506 13.4437 2.70089C13.5531 2.59673 13.6077 2.47024 13.6077 2.32143ZM18.2933 10.4129V17.1429H16.7939V18.5714C16.7939 18.9658 16.6475 19.3025 16.3546 19.5815C16.0618 19.8605 15.7084 20 15.2945 20C14.8806 20 14.5273 19.8605 14.2344 19.5815C13.9416 19.3025 13.7952 18.9658 13.7952 18.5714V17.1429H4.79891V18.5714C4.79891 18.9658 4.65248 19.3025 4.35964 19.5815C4.06679 19.8605 3.71342 20 3.29953 20C2.88564 20 2.53227 19.8605 2.23943 19.5815C1.94658 19.3025 1.80016 18.9658 1.80016 18.5714V17.1429H0.300781V10.4129C0.300781 9.57961 0.398397 8.75 0.593628 7.92411L1.80016 2.85714C1.87044 2.27679 2.25114 1.76711 2.94226 1.32812C3.63338 0.889137 4.53144 0.558036 5.63645 0.334821C6.74146 0.111607 7.96165 0 9.29703 0C10.6324 0 11.8526 0.111607 12.9576 0.334821C14.0626 0.558036 14.9607 0.889137 15.6518 1.32812C16.3429 1.76711 16.7236 2.27679 16.7939 2.85714L18.0239 7.92411C18.2035 8.68304 18.2933 9.51265 18.2933 10.4129Z" fill="currentColor"/>
  </g>
</symbol><symbol id="businessman" viewBox="0 0 29 29"><g fill="none">
<path d="M24.4731 24.0259V20.5393C24.4731 19.5631 24.3296 18.5868 23.7555 17.6105C23.1815 16.6343 22.464 15.7975 21.4595 15.2396C20.455 14.5423 18.3024 14.4028 17.2979 14.4028L15.0018 16.7737L15.8628 18.5868V22.7708L14.4278 24.3049L12.9928 22.7708V18.5868L13.9973 16.7737L11.5577 14.4028C10.4097 14.4028 8.25716 14.5423 7.25264 15.2396C6.24811 15.7975 5.6741 16.6343 5.10009 17.6105C4.52607 18.5868 4.38257 19.4236 4.38257 20.5393V24.0259C4.38257 24.0259 8.11366 25.5601 14.4278 25.5601C20.742 25.5601 24.4731 24.0259 24.4731 24.0259Z" fill="currentColor"/>
<path d="M14.4278 3.38525C11.7012 3.38525 10.1227 5.89563 10.5532 8.68494C10.9837 11.4742 12.4187 13.4268 14.4278 13.4268C16.4368 13.4268 17.8719 11.4742 18.3024 8.68494C18.7329 5.75617 17.1544 3.38525 14.4278 3.38525Z" fill="currentColor"/>
</g></symbol><symbol id="checkbox-marker" viewBox="0 0 11 12"><g fill="none">
<path d="M3.38679 11.1809L0 7.5V7V6C0 5.95907 0 6.04093 0 6C0 5.78516 6.95735e-05 5.5 6.95735e-05 5.5V4.5L3.37736 7.75615C3.49314 7.87756 3.68161 7.87614 3.79738 7.75474L11.0001 0V2.07271V3C11.0001 3.5 11.0001 3.5 11.0001 3.5L4.80839 10.1208L4.80974 10.1222L3.80681 11.1795C3.69103 11.3009 3.50256 11.3009 3.38679 11.1809Z" fill="currentColor"/>
</g></symbol><symbol id="close-filter" viewBox="0 0 25 22">
  <path d="M21.5 2.75L3.5 19.25M3.5 2.75L21.5 19.25" fill="none" stroke="currentColor" stroke-width="2.8" stroke-linecap="round" stroke-linejoin="round"/>
</symbol><symbol id="close" viewBox="0 0 19 20"><g fill="none">
<rect width="23.8906" height="2.0318" rx="1.0159" transform="matrix(0.69604 0.718003 -0.69604 0.718003 1.97168 0.988155)" fill="currentColor"/>
<rect width="23.8906" height="2.0318" rx="1.0159" transform="matrix(0.69604 -0.718003 0.69604 0.718003 -0.399414 17.754)" fill="currentColor"/>
</g></symbol><symbol id="filter" viewBox="0 0 34 15">
  <rect x="17" width="12" height="3" fill="currentColor"/>
  <rect x="17" y="12" width="12" height="3" fill="currentColor"/>
  <rect x="6" y="6" width="12" height="3" fill="currentColor"/>
  <rect x="12" width="3" height="3" fill="currentColor"/>
  <rect x="12" y="12" width="3" height="3" fill="currentColor"/>
  <rect x="20" y="6" width="3" height="3" fill="currentColor"/>
  <rect x="6" width="4" height="3" fill="currentColor"/>
  <rect x="6" y="12" width="4" height="3" fill="currentColor"/>
  <rect x="25" y="6" width="4" height="3" fill="currentColor"/>
</symbol><symbol id="heart-filled" viewBox="0 0 20 18"><g fill="none">
<path d="M5 0C7.7625 0 10 2.19375 10 4.9C10 2.19375 12.2375 0 15 0C17.7625 0 20 2.19375 20 4.9C20 8.97875 15.9575 10.4175 10.49 16.91C10.4298 16.9813 10.3548 17.0386 10.2701 17.0779C10.1855 17.1172 10.0933 17.1376 10 17.1376C9.90668 17.1376 9.81449 17.1172 9.72986 17.0779C9.64523 17.0386 9.57019 16.9813 9.51 16.91C4.0425 10.4175 0 8.97875 0 4.9C0 2.19375 2.2375 0 5 0Z" fill="currentColor"/>
</g></symbol><symbol id="heart-stroke" viewBox="0 0 20 18"><g fill="none">
<path fill-rule="evenodd" clip-rule="evenodd" d="M10 6.87436L11.1175 4.52557C11.395 3.94396 11.8762 3.10764 12.5575 2.43149C13.2275 1.76585 14.03 1.3129 15 1.3129C17.095 1.3129 18.75 3.05381 18.75 5.14658C18.75 6.7365 18.0575 7.85903 16.415 9.57106C15.9937 10.0096 15.5138 10.4835 14.9825 11.0061C13.5975 12.3715 11.875 14.0704 10 16.3417C8.125 14.0704 6.4025 12.3715 5.0175 11.0061C4.48625 10.4835 4.005 10.0083 3.585 9.57106C1.9425 7.85903 1.25 6.7365 1.25 5.14658C1.25 3.05381 2.905 1.3129 5 1.3129C5.97 1.3129 6.7725 1.76585 7.4425 2.43149C8.12375 3.10764 8.605 3.94396 8.8825 4.52557L10 6.87436ZM10.49 17.7609C10.4298 17.8358 10.3548 17.896 10.2701 17.9373C10.1855 17.9786 10.0933 18 10 18C9.90668 18 9.81449 17.9786 9.72986 17.9373C9.64523 17.896 9.57019 17.8358 9.51 17.7609C7.50875 15.2638 5.6975 13.4783 4.20625 12.0091C1.625 9.4634 0 7.86297 0 5.14658C0 2.30414 2.2375 0 5 0C7 0 8.39875 1.37855 9.255 2.63631C9.58 3.11552 9.8275 3.57635 10 3.93871C10.2162 3.48519 10.4653 3.04978 10.745 2.63631C11.6012 1.37723 13 0 15 0C17.7625 0 20 2.30414 20 5.14658C20 7.86297 18.375 9.4634 15.7938 12.0091C14.3025 13.4796 12.4913 15.2651 10.49 17.7596V17.7609Z" fill="currentColor"/>
</g></symbol><symbol id="location" viewBox="0 0 42 42"><g fill="none">
<path d="M21 0C12.3034 0 5.25 7.05337 5.25 15.75C5.25 25.8667 12.8569 30.2898 14.5385 32.3077C18.5769 37.1538 18.8051 42 21 42C23.1949 42 23.4231 37.1538 27.4615 32.3077C29.1431 30.2898 36.75 25.8667 36.75 15.75C36.75 7.05337 29.6966 0 21 0ZM21 26.25C15.2014 26.25 10.5 21.5486 10.5 15.75C10.5 9.95137 15.2014 5.25 21 5.25C26.7986 5.25 31.5 9.95137 31.5 15.75C31.5 21.5486 26.7986 26.25 21 26.25ZM21 10.5C18.102 10.5 15.75 12.852 15.75 15.75C15.75 18.648 18.102 21 21 21C23.898 21 26.25 18.648 26.25 15.75C26.25 12.852 23.898 10.5 21 10.5Z" fill="#CCE5FA"/>
<ellipse cx="21" cy="15.75" rx="1.75" ry="1.75" fill="#161C35"/>
</g></symbol><symbol id="mail-desktop-header" viewBox="0 0 21 21"><g fill="none">
<path d="M3.4592 6.20027L9.4592 9.96067C9.6608 10.0867 9.9216 10.1464 10.184 10.1464C10.4464 10.1464 10.7072 10.0867 10.9088 9.96067L16.9088 6.20027C17.3 5.9548 17.6696 5 16.952 5H3.4168C2.6992 5 3.0688 5.9548 3.4592 6.20027ZM17.0904 8.2564L10.9088 12.0149C10.6368 12.1811 10.4464 12.2007 10.184 12.2007C9.9216 12.2007 9.7312 12.1811 9.4592 12.0149C9.1872 11.8488 3.7528 8.5252 3.3088 8.25547C2.9968 8.06507 3 8.28813 3 8.45987V15.2667C3 15.6587 3.4528 16.2 3.8 16.2H16.6C16.9472 16.2 17.4 15.6587 17.4 15.2667V8.4608C17.4 8.28907 17.4032 8.066 17.0904 8.2564Z" fill="currentColor"/>
</g></symbol><symbol id="mail" viewBox="0 0 37 26"><g fill="none">
<path fill-rule="evenodd" clip-rule="evenodd" d="M32.2786 20.9327L23.6177 13L32.2786 5.06731L31.0976 3.80529L18.4999 15.3438L5.90234 3.80529L4.72131 5.06731L13.3822 13L4.72131 20.9327L5.90234 22.1947L14.6616 14.1719L18.4999 17.6875L22.3383 14.1719L31.0976 22.1947L32.2786 20.9327ZM3.15187 0.5C1.53384 0.5 0.222168 1.89768 0.222168 3.61572V22.3843C0.222168 24.105 1.5232 25.5 3.15187 25.5H33.848C35.4661 25.5 36.7777 24.1023 36.7777 22.3843V3.61572C36.7777 1.89496 35.4767 0.5 33.848 0.5H3.15187Z" fill="currentColor"/>
</g></symbol><symbol id="mark" viewBox="0 0 61 60"><g fill="none">
<circle cx="30.2979" cy="30" r="30" fill="black" fill-opacity="0.6"/>
<path d="M22.8482 3.00922C16.0736 4.87906 10.2499 9.22814 6.53336 15.1929C2.81684 21.1577 1.47931 28.302 2.78633 35.2073C4.09335 42.1126 7.94934 48.2739 13.5887 52.4678C19.228 56.6618 26.2383 58.5817 33.2276 57.8463C40.2169 57.1109 46.6742 53.7741 51.3172 48.4983C55.9602 43.2226 58.4494 36.3937 58.2907 29.3676C58.132 22.3415 55.3368 15.632 50.4603 10.5713C45.5838 5.51057 38.9825 2.46876 31.9671 2.0498" stroke="#4D99D6" stroke-width="4" stroke-linecap="round"/>
<path d="M20.8604 32.4336H21.083C22.0205 32.4336 22.8252 32.3203 23.4971 32.0938C24.1768 31.8594 24.7354 31.5234 25.1729 31.0859C25.6104 30.6484 25.9346 30.1133 26.1455 29.4805C26.3564 28.8398 26.4619 28.1133 26.4619 27.3008V24.0664C26.4619 23.4492 26.3994 22.9062 26.2744 22.4375C26.1572 21.9688 25.9854 21.582 25.7588 21.2773C25.54 20.9648 25.2822 20.7305 24.9854 20.5742C24.6963 20.418 24.376 20.3398 24.0244 20.3398C23.6494 20.3398 23.3174 20.4336 23.0283 20.6211C22.7393 20.8008 22.4932 21.0469 22.29 21.3594C22.0947 21.6719 21.9424 22.0312 21.833 22.4375C21.7314 22.8359 21.6807 23.2539 21.6807 23.6914C21.6807 24.1289 21.7314 24.5469 21.833 24.9453C21.9346 25.3359 22.0869 25.6836 22.29 25.9883C22.4932 26.2852 22.7471 26.5234 23.0518 26.7031C23.3564 26.875 23.7158 26.9609 24.1299 26.9609C24.5283 26.9609 24.8838 26.8867 25.1963 26.7383C25.5166 26.582 25.7861 26.3789 26.0049 26.1289C26.2314 25.8789 26.4033 25.6016 26.5205 25.2969C26.6455 24.9922 26.708 24.6836 26.708 24.3711L27.8213 24.9805C27.8213 25.5273 27.7041 26.0664 27.4697 26.5977C27.2354 27.1289 26.9072 27.6133 26.4854 28.0508C26.0713 28.4805 25.5908 28.8242 25.0439 29.082C24.4971 29.3398 23.9111 29.4688 23.2861 29.4688C22.4893 29.4688 21.7822 29.3242 21.165 29.0352C20.5479 28.7383 20.0244 28.332 19.5947 27.8164C19.1729 27.293 18.8525 26.6836 18.6338 25.9883C18.415 25.293 18.3057 24.5391 18.3057 23.7266C18.3057 22.8984 18.4385 22.1211 18.7041 21.3945C18.9775 20.668 19.3643 20.0273 19.8643 19.4727C20.3721 18.918 20.9775 18.4844 21.6807 18.1719C22.3916 17.8516 23.1807 17.6914 24.0479 17.6914C24.915 17.6914 25.7041 17.8594 26.415 18.1953C27.126 18.5312 27.7354 19.0078 28.2432 19.625C28.751 20.2344 29.1416 20.9648 29.415 21.8164C29.6963 22.668 29.8369 23.6133 29.8369 24.6523V25.8242C29.8369 26.9336 29.7158 27.9648 29.4736 28.918C29.2393 29.8711 28.8838 30.7344 28.4072 31.5078C27.9385 32.2734 27.3525 32.9297 26.6494 33.4766C25.9541 34.0234 25.1455 34.4414 24.2236 34.7305C23.3018 35.0195 22.2705 35.1641 21.1299 35.1641H20.8604V32.4336ZM34.6416 32.4336H34.8643C35.8018 32.4336 36.6064 32.3203 37.2783 32.0938C37.958 31.8594 38.5166 31.5234 38.9541 31.0859C39.3916 30.6484 39.7158 30.1133 39.9268 29.4805C40.1377 28.8398 40.2432 28.1133 40.2432 27.3008V24.0664C40.2432 23.4492 40.1807 22.9062 40.0557 22.4375C39.9385 21.9688 39.7666 21.582 39.54 21.2773C39.3213 20.9648 39.0635 20.7305 38.7666 20.5742C38.4775 20.418 38.1572 20.3398 37.8057 20.3398C37.4307 20.3398 37.0986 20.4336 36.8096 20.6211C36.5205 20.8008 36.2744 21.0469 36.0713 21.3594C35.876 21.6719 35.7236 22.0312 35.6143 22.4375C35.5127 22.8359 35.4619 23.2539 35.4619 23.6914C35.4619 24.1289 35.5127 24.5469 35.6143 24.9453C35.7158 25.3359 35.8682 25.6836 36.0713 25.9883C36.2744 26.2852 36.5283 26.5234 36.833 26.7031C37.1377 26.875 37.4971 26.9609 37.9111 26.9609C38.3096 26.9609 38.665 26.8867 38.9775 26.7383C39.2979 26.582 39.5674 26.3789 39.7861 26.1289C40.0127 25.8789 40.1846 25.6016 40.3018 25.2969C40.4268 24.9922 40.4893 24.6836 40.4893 24.3711L41.6025 24.9805C41.6025 25.5273 41.4854 26.0664 41.251 26.5977C41.0166 27.1289 40.6885 27.6133 40.2666 28.0508C39.8525 28.4805 39.3721 28.8242 38.8252 29.082C38.2783 29.3398 37.6924 29.4688 37.0674 29.4688C36.2705 29.4688 35.5635 29.3242 34.9463 29.0352C34.3291 28.7383 33.8057 28.332 33.376 27.8164C32.9541 27.293 32.6338 26.6836 32.415 25.9883C32.1963 25.293 32.0869 24.5391 32.0869 23.7266C32.0869 22.8984 32.2197 22.1211 32.4854 21.3945C32.7588 20.668 33.1455 20.0273 33.6455 19.4727C34.1533 18.918 34.7588 18.4844 35.4619 18.1719C36.1729 17.8516 36.9619 17.6914 37.8291 17.6914C38.6963 17.6914 39.4854 17.8594 40.1963 18.1953C40.9072 18.5312 41.5166 19.0078 42.0244 19.625C42.5322 20.2344 42.9229 20.9648 43.1963 21.8164C43.4775 22.668 43.6182 23.6133 43.6182 24.6523V25.8242C43.6182 26.9336 43.4971 27.9648 43.2549 28.918C43.0205 29.8711 42.665 30.7344 42.1885 31.5078C41.7197 32.2734 41.1338 32.9297 40.4307 33.4766C39.7354 34.0234 38.9268 34.4414 38.0049 34.7305C37.083 35.0195 36.0518 35.1641 34.9111 35.1641H34.6416V32.4336Z" fill="white"/>
<path d="M19.6357 40.5V51H18.3643V40.5H19.6357ZM24.7354 51.1367C24.2204 51.1367 23.7533 51.0501 23.334 50.877C22.9193 50.6992 22.5615 50.4508 22.2607 50.1318C21.9645 49.8128 21.7367 49.4346 21.5771 48.9971C21.4176 48.5596 21.3379 48.0811 21.3379 47.5615V47.2744C21.3379 46.6729 21.4268 46.1374 21.6045 45.668C21.7822 45.194 22.0238 44.793 22.3291 44.4648C22.6344 44.1367 22.9808 43.8883 23.3682 43.7197C23.7555 43.5511 24.1566 43.4668 24.5713 43.4668C25.0999 43.4668 25.5557 43.5579 25.9385 43.7402C26.3258 43.9225 26.6426 44.1777 26.8887 44.5059C27.1348 44.8294 27.3171 45.2122 27.4355 45.6543C27.554 46.0918 27.6133 46.5703 27.6133 47.0898V47.6572H22.0898V46.625H26.3486V46.5293C26.3304 46.2012 26.262 45.8822 26.1436 45.5723C26.0296 45.2624 25.8473 45.0072 25.5967 44.8066C25.346 44.6061 25.0042 44.5059 24.5713 44.5059C24.2842 44.5059 24.0199 44.5674 23.7783 44.6904C23.5368 44.8089 23.3294 44.9867 23.1562 45.2236C22.9831 45.4606 22.8486 45.75 22.7529 46.0918C22.6572 46.4336 22.6094 46.8278 22.6094 47.2744V47.5615C22.6094 47.9124 22.6572 48.2428 22.7529 48.5527C22.8532 48.8581 22.9967 49.127 23.1836 49.3594C23.375 49.5918 23.6051 49.7741 23.874 49.9062C24.1475 50.0384 24.4574 50.1045 24.8037 50.1045C25.2503 50.1045 25.6286 50.0133 25.9385 49.8311C26.2484 49.6488 26.5195 49.4049 26.752 49.0996L27.5176 49.708C27.3581 49.9495 27.1553 50.1797 26.9092 50.3984C26.6631 50.6172 26.36 50.7949 26 50.9316C25.6445 51.0684 25.223 51.1367 24.7354 51.1367ZM31.2432 49.8584L33.2666 43.6035H34.5586L31.8994 51H31.0518L31.2432 49.8584ZM29.5547 43.6035L31.6396 49.8926L31.7832 51H30.9355L28.2559 43.6035H29.5547ZM38.749 51.1367C38.234 51.1367 37.7669 51.0501 37.3477 50.877C36.9329 50.6992 36.5752 50.4508 36.2744 50.1318C35.9782 49.8128 35.7503 49.4346 35.5908 48.9971C35.4313 48.5596 35.3516 48.0811 35.3516 47.5615V47.2744C35.3516 46.6729 35.4404 46.1374 35.6182 45.668C35.7959 45.194 36.0374 44.793 36.3428 44.4648C36.6481 44.1367 36.9945 43.8883 37.3818 43.7197C37.7692 43.5511 38.1702 43.4668 38.585 43.4668C39.1136 43.4668 39.5693 43.5579 39.9521 43.7402C40.3395 43.9225 40.6562 44.1777 40.9023 44.5059C41.1484 44.8294 41.3307 45.2122 41.4492 45.6543C41.5677 46.0918 41.627 46.5703 41.627 47.0898V47.6572H36.1035V46.625H40.3623V46.5293C40.3441 46.2012 40.2757 45.8822 40.1572 45.5723C40.0433 45.2624 39.861 45.0072 39.6104 44.8066C39.3597 44.6061 39.0179 44.5059 38.585 44.5059C38.2979 44.5059 38.0335 44.5674 37.792 44.6904C37.5505 44.8089 37.3431 44.9867 37.1699 45.2236C36.9967 45.4606 36.8623 45.75 36.7666 46.0918C36.6709 46.4336 36.623 46.8278 36.623 47.2744V47.5615C36.623 47.9124 36.6709 48.2428 36.7666 48.5527C36.8669 48.8581 37.0104 49.127 37.1973 49.3594C37.3887 49.5918 37.6188 49.7741 37.8877 49.9062C38.1611 50.0384 38.471 50.1045 38.8174 50.1045C39.264 50.1045 39.6423 50.0133 39.9521 49.8311C40.262 49.6488 40.5332 49.4049 40.7656 49.0996L41.5312 49.708C41.3717 49.9495 41.1689 50.1797 40.9229 50.3984C40.6768 50.6172 40.3737 50.7949 40.0137 50.9316C39.6582 51.0684 39.2367 51.1367 38.749 51.1367ZM44.4775 40.5V51H43.2061V40.5H44.4775Z" fill="white"/>
<line opacity="0.3" x1="15.2979" y1="36.5" x2="45.2979" y2="36.5" stroke="white"/>
</g></symbol><symbol id="mark_level" viewBox="0 0 64 64"><g fill="none">
<path d="M27.436 2.3492C19.7903 3.52607 12.8947 7.61087 8.18897 13.7508C3.48324 19.8906 1.33115 27.611 2.18203 35.2998C3.03291 42.9886 6.82098 50.0516 12.7553 55.014C18.6897 59.9764 26.3116 62.4546 34.0296 61.9313C41.7477 61.4079 48.9652 57.9234 54.1753 52.2053C59.3854 46.4872 62.1854 38.9775 61.9905 31.2442C61.7956 23.5109 58.621 16.1518 53.1295 10.7034C47.6379 5.25497 40.254 2.13844 32.5194 2.0045" stroke="#FF8D30" stroke-width="3" stroke-linecap="round"/>
<path d="M23.5625 33.4336H23.7852C24.7227 33.4336 25.5273 33.3203 26.1992 33.0938C26.8789 32.8594 27.4375 32.5234 27.875 32.0859C28.3125 31.6484 28.6367 31.1133 28.8477 30.4805C29.0586 29.8398 29.1641 29.1133 29.1641 28.3008V25.0664C29.1641 24.4492 29.1016 23.9062 28.9766 23.4375C28.8594 22.9688 28.6875 22.582 28.4609 22.2773C28.2422 21.9648 27.9844 21.7305 27.6875 21.5742C27.3984 21.418 27.0781 21.3398 26.7266 21.3398C26.3516 21.3398 26.0195 21.4336 25.7305 21.6211C25.4414 21.8008 25.1953 22.0469 24.9922 22.3594C24.7969 22.6719 24.6445 23.0312 24.5352 23.4375C24.4336 23.8359 24.3828 24.2539 24.3828 24.6914C24.3828 25.1289 24.4336 25.5469 24.5352 25.9453C24.6367 26.3359 24.7891 26.6836 24.9922 26.9883C25.1953 27.2852 25.4492 27.5234 25.7539 27.7031C26.0586 27.875 26.418 27.9609 26.832 27.9609C27.2305 27.9609 27.5859 27.8867 27.8984 27.7383C28.2188 27.582 28.4883 27.3789 28.707 27.1289C28.9336 26.8789 29.1055 26.6016 29.2227 26.2969C29.3477 25.9922 29.4102 25.6836 29.4102 25.3711L30.5234 25.9805C30.5234 26.5273 30.4062 27.0664 30.1719 27.5977C29.9375 28.1289 29.6094 28.6133 29.1875 29.0508C28.7734 29.4805 28.293 29.8242 27.7461 30.082C27.1992 30.3398 26.6133 30.4688 25.9883 30.4688C25.1914 30.4688 24.4844 30.3242 23.8672 30.0352C23.25 29.7383 22.7266 29.332 22.2969 28.8164C21.875 28.293 21.5547 27.6836 21.3359 26.9883C21.1172 26.293 21.0078 25.5391 21.0078 24.7266C21.0078 23.8984 21.1406 23.1211 21.4062 22.3945C21.6797 21.668 22.0664 21.0273 22.5664 20.4727C23.0742 19.918 23.6797 19.4844 24.3828 19.1719C25.0938 18.8516 25.8828 18.6914 26.75 18.6914C27.6172 18.6914 28.4062 18.8594 29.1172 19.1953C29.8281 19.5312 30.4375 20.0078 30.9453 20.625C31.4531 21.2344 31.8438 21.9648 32.1172 22.8164C32.3984 23.668 32.5391 24.6133 32.5391 25.6523V26.8242C32.5391 27.9336 32.418 28.9648 32.1758 29.918C31.9414 30.8711 31.5859 31.7344 31.1094 32.5078C30.6406 33.2734 30.0547 33.9297 29.3516 34.4766C28.6562 35.0234 27.8477 35.4414 26.9258 35.7305C26.0039 36.0195 24.9727 36.1641 23.832 36.1641H23.5625V33.4336ZM37.3438 33.4336H37.5664C38.5039 33.4336 39.3086 33.3203 39.9805 33.0938C40.6602 32.8594 41.2188 32.5234 41.6562 32.0859C42.0938 31.6484 42.418 31.1133 42.6289 30.4805C42.8398 29.8398 42.9453 29.1133 42.9453 28.3008V25.0664C42.9453 24.4492 42.8828 23.9062 42.7578 23.4375C42.6406 22.9688 42.4688 22.582 42.2422 22.2773C42.0234 21.9648 41.7656 21.7305 41.4688 21.5742C41.1797 21.418 40.8594 21.3398 40.5078 21.3398C40.1328 21.3398 39.8008 21.4336 39.5117 21.6211C39.2227 21.8008 38.9766 22.0469 38.7734 22.3594C38.5781 22.6719 38.4258 23.0312 38.3164 23.4375C38.2148 23.8359 38.1641 24.2539 38.1641 24.6914C38.1641 25.1289 38.2148 25.5469 38.3164 25.9453C38.418 26.3359 38.5703 26.6836 38.7734 26.9883C38.9766 27.2852 39.2305 27.5234 39.5352 27.7031C39.8398 27.875 40.1992 27.9609 40.6133 27.9609C41.0117 27.9609 41.3672 27.8867 41.6797 27.7383C42 27.582 42.2695 27.3789 42.4883 27.1289C42.7148 26.8789 42.8867 26.6016 43.0039 26.2969C43.1289 25.9922 43.1914 25.6836 43.1914 25.3711L44.3047 25.9805C44.3047 26.5273 44.1875 27.0664 43.9531 27.5977C43.7188 28.1289 43.3906 28.6133 42.9688 29.0508C42.5547 29.4805 42.0742 29.8242 41.5273 30.082C40.9805 30.3398 40.3945 30.4688 39.7695 30.4688C38.9727 30.4688 38.2656 30.3242 37.6484 30.0352C37.0312 29.7383 36.5078 29.332 36.0781 28.8164C35.6562 28.293 35.3359 27.6836 35.1172 26.9883C34.8984 26.293 34.7891 25.5391 34.7891 24.7266C34.7891 23.8984 34.9219 23.1211 35.1875 22.3945C35.4609 21.668 35.8477 21.0273 36.3477 20.4727C36.8555 19.918 37.4609 19.4844 38.1641 19.1719C38.875 18.8516 39.6641 18.6914 40.5312 18.6914C41.3984 18.6914 42.1875 18.8594 42.8984 19.1953C43.6094 19.5312 44.2188 20.0078 44.7266 20.625C45.2344 21.2344 45.625 21.9648 45.8984 22.8164C46.1797 23.668 46.3203 24.6133 46.3203 25.6523V26.8242C46.3203 27.9336 46.1992 28.9648 45.957 29.918C45.7227 30.8711 45.3672 31.7344 44.8906 32.5078C44.4219 33.2734 43.8359 33.9297 43.1328 34.4766C42.4375 35.0234 41.6289 35.4414 40.707 35.7305C39.7852 36.0195 38.7539 36.1641 37.6133 36.1641H37.3438V33.4336Z" fill="#1D2E5B"/>
<line opacity="0.1" x1="17" y1="38.5" x2="48" y2="38.5" stroke="black"/>
<path opacity="0.4" d="M22.3379 42.5V53H21.0664V42.5H22.3379ZM27.4375 53.1367C26.9225 53.1367 26.4554 53.0501 26.0361 52.877C25.6214 52.6992 25.2637 52.4508 24.9629 52.1318C24.6667 51.8128 24.4388 51.4346 24.2793 50.9971C24.1198 50.5596 24.04 50.0811 24.04 49.5615V49.2744C24.04 48.6729 24.1289 48.1374 24.3066 47.668C24.4844 47.194 24.7259 46.793 25.0312 46.4648C25.3366 46.1367 25.6829 45.8883 26.0703 45.7197C26.4577 45.5511 26.8587 45.4668 27.2734 45.4668C27.8021 45.4668 28.2578 45.5579 28.6406 45.7402C29.028 45.9225 29.3447 46.1777 29.5908 46.5059C29.8369 46.8294 30.0192 47.2122 30.1377 47.6543C30.2562 48.0918 30.3154 48.5703 30.3154 49.0898V49.6572H24.792V48.625H29.0508V48.5293C29.0326 48.2012 28.9642 47.8822 28.8457 47.5723C28.7318 47.2624 28.5495 47.0072 28.2988 46.8066C28.0482 46.6061 27.7064 46.5059 27.2734 46.5059C26.9863 46.5059 26.722 46.5674 26.4805 46.6904C26.2389 46.8089 26.0316 46.9867 25.8584 47.2236C25.6852 47.4606 25.5508 47.75 25.4551 48.0918C25.3594 48.4336 25.3115 48.8278 25.3115 49.2744V49.5615C25.3115 49.9124 25.3594 50.2428 25.4551 50.5527C25.5553 50.8581 25.6989 51.127 25.8857 51.3594C26.0771 51.5918 26.3073 51.7741 26.5762 51.9062C26.8496 52.0384 27.1595 52.1045 27.5059 52.1045C27.9525 52.1045 28.3307 52.0133 28.6406 51.8311C28.9505 51.6488 29.2217 51.4049 29.4541 51.0996L30.2197 51.708C30.0602 51.9495 29.8574 52.1797 29.6113 52.3984C29.3652 52.6172 29.0622 52.7949 28.7021 52.9316C28.3467 53.0684 27.9251 53.1367 27.4375 53.1367ZM33.9453 51.8584L35.9688 45.6035H37.2607L34.6016 53H33.7539L33.9453 51.8584ZM32.2568 45.6035L34.3418 51.8926L34.4854 53H33.6377L30.958 45.6035H32.2568ZM41.4512 53.1367C40.9362 53.1367 40.4691 53.0501 40.0498 52.877C39.6351 52.6992 39.2773 52.4508 38.9766 52.1318C38.6803 51.8128 38.4525 51.4346 38.293 50.9971C38.1335 50.5596 38.0537 50.0811 38.0537 49.5615V49.2744C38.0537 48.6729 38.1426 48.1374 38.3203 47.668C38.498 47.194 38.7396 46.793 39.0449 46.4648C39.3503 46.1367 39.6966 45.8883 40.084 45.7197C40.4714 45.5511 40.8724 45.4668 41.2871 45.4668C41.8158 45.4668 42.2715 45.5579 42.6543 45.7402C43.0417 45.9225 43.3584 46.1777 43.6045 46.5059C43.8506 46.8294 44.0329 47.2122 44.1514 47.6543C44.2699 48.0918 44.3291 48.5703 44.3291 49.0898V49.6572H38.8057V48.625H43.0645V48.5293C43.0462 48.2012 42.9779 47.8822 42.8594 47.5723C42.7454 47.2624 42.5632 47.0072 42.3125 46.8066C42.0618 46.6061 41.7201 46.5059 41.2871 46.5059C41 46.5059 40.7357 46.5674 40.4941 46.6904C40.2526 46.8089 40.0452 46.9867 39.8721 47.2236C39.6989 47.4606 39.5645 47.75 39.4688 48.0918C39.373 48.4336 39.3252 48.8278 39.3252 49.2744V49.5615C39.3252 49.9124 39.373 50.2428 39.4688 50.5527C39.569 50.8581 39.7126 51.127 39.8994 51.3594C40.0908 51.5918 40.321 51.7741 40.5898 51.9062C40.8633 52.0384 41.1732 52.1045 41.5195 52.1045C41.9661 52.1045 42.3444 52.0133 42.6543 51.8311C42.9642 51.6488 43.2354 51.4049 43.4678 51.0996L44.2334 51.708C44.0739 51.9495 43.8711 52.1797 43.625 52.3984C43.3789 52.6172 43.0758 52.7949 42.7158 52.9316C42.3604 53.0684 41.9388 53.1367 41.4512 53.1367ZM47.1797 42.5V53H45.9082V42.5H47.1797Z" fill="black"/>
</g></symbol><symbol id="pagination-arrow" viewBox="0 0 10 18"><g fill="none">
<path d="M0 8.66016L9.75 -9.91821e-05L9.75 17.3204L0 8.66016Z" fill="currentColor"/>
</g></symbol><symbol id="phone-desktop-header" viewBox="0 0 21 21"><g fill="none">
<path d="M10.9741 9.42388C10.9741 9.61288 11.1277 9.76138 11.3155 9.76138C11.7047 9.76138 12.0187 10.0753 12.0187 10.4566C12.0187 10.6423 12.1724 10.7941 12.3601 10.7941C12.5479 10.7941 12.7015 10.6423 12.7015 10.4566C12.7015 9.70064 12.0802 9.08638 11.3155 9.08638C11.1277 9.08638 10.9741 9.23826 10.9741 9.42388ZM16.5318 10.7941C16.723 10.7941 16.8732 10.6423 16.8732 10.4566C16.8732 7.42589 14.3811 4.96214 11.3155 4.96214C11.1277 4.96214 10.9741 5.114 10.9741 5.29964C10.9741 5.48526 11.1277 5.63714 11.3155 5.63714C14.0056 5.63714 16.1904 7.80051 16.1904 10.4566C16.1904 10.6423 16.344 10.7941 16.5318 10.7941Z" fill="#161C35"/>
<path d="M14.1047 10.4566C14.1047 10.6422 14.2583 10.7941 14.446 10.7941C14.6338 10.7941 14.7874 10.6422 14.7874 10.4566C14.7874 8.56326 13.2307 7.02426 11.3156 7.02426C11.1278 7.02426 10.9742 7.17613 10.9742 7.36176C10.9742 7.55076 11.1278 7.69926 11.3156 7.69926C12.8552 7.69926 14.1047 8.93788 14.1047 10.4566ZM11.3156 2.89999C11.1278 2.89999 10.9742 3.05187 10.9742 3.23749C10.9742 3.42314 11.1278 3.57499 11.3156 3.57499C15.1561 3.57499 18.2797 6.66313 18.2797 10.4566C18.2797 10.6422 18.43 10.7941 18.6211 10.7941C18.8089 10.7941 18.9625 10.6422 18.9625 10.4566C18.9625 6.28851 15.5316 2.89999 11.3156 2.89999ZM14.6509 14.0139L14.2037 14.2535C13.4492 14.6619 12.8621 15.7812 11.9311 14.9375L9.50006 12.5L7.39999 10.4566C6.3449 9.1235 7.5263 8.80625 7.93936 8.05701L8.18174 7.61826C8.45484 7.11875 8.55383 6.5585 8.47191 5.99824C8.3934 5.438 8.13736 4.92837 7.7277 4.52337C7.2293 4.03063 6.56703 3.76064 5.86037 3.76064C5.15371 3.76064 4.48802 4.03063 3.9896 4.52337L3.81551 4.69888C2.89378 5.61013 2.78796 7.17949 3.51509 9.1235C4.20125 10.9797 5.58385 12.9913 7.39999 14.7868C10.1686 17.5239 13.2512 19.1 15.4634 19.1C16.3373 19.1 17.0781 18.8536 17.6038 18.3339L17.7813 18.1584C18.2763 17.669 18.5528 17.0143 18.5563 16.3089C18.5528 15.6204 18.2695 14.9454 17.7813 14.4628C16.9586 13.6494 15.6716 13.4671 14.6509 14.0139Z" fill="currentColor"/>
</g></symbol><symbol id="phone" viewBox="0 0 37 26">
  <path fill-rule="evenodd" clip-rule="evenodd" d="M18.6996 -2C13.1067 -2 7.50036 -1.05466 5.46614 0.829548C3.77839 2.39273 3.21578 5.15428 3.02614 6.90276C3.02614 6.90276 3 7.07555 3 7.14987C3 7.83552 3.5886 8.38543 4.30824 8.38543C4.39327 8.38543 7.53975 8.14444 9.43673 7.9962C9.48238 7.98995 9.52839 7.98383 9.57403 7.97152C10.2806 7.95309 10.8498 7.4093 10.8498 6.73596L10.8561 4.3017C10.8561 3.54798 11.504 2.94244 12.3021 2.94244H25.097C25.8953 2.94244 26.5432 3.54792 26.5432 4.3017L26.5496 6.73596C26.5496 7.4093 27.1188 7.95309 27.8252 7.97152C27.8706 7.9839 27.9166 7.98995 27.9628 7.9962C29.8599 8.14437 33.0063 8.38543 33.091 8.38543C33.8104 8.38543 34.3994 7.83552 34.3994 7.14987C34.3994 7.07555 34.3733 6.90276 34.3733 6.90276C34.1835 5.15428 33.6215 2.3928 31.9337 0.829548C29.8988 -1.05466 24.2925 -2 18.6996 -2ZM18.6996 14.0632C17.2539 14.0632 16.083 15.169 16.083 16.5344C16.083 17.8997 17.2539 19.0055 18.6996 19.0055C20.1453 19.0055 21.3162 17.8997 21.3162 16.5344C21.3162 15.169 20.1453 14.0632 18.6996 14.0632ZM16.7372 8.50274V6.95825C16.7372 6.10574 16.0044 5.41377 15.1018 5.41377C14.1992 5.41377 13.4665 6.1058 13.4665 6.95825V8.50274L4.6416 17.4055C4.03349 17.9678 3.65398 18.7522 3.65398 19.6173V22.0948C3.65398 23.4602 4.82498 24.5659 6.2706 24.5659H6.92479V26.1106C6.92479 26.963 7.65761 27.6549 8.5602 27.6549C9.46279 27.6549 10.1955 26.963 10.1955 26.1106V24.5659H27.2037V26.1106C27.2037 26.963 27.9362 27.6549 28.8391 27.6549C29.7417 27.6549 30.4743 26.963 30.4743 26.1106V24.5659H31.1285C32.5742 24.5659 33.7451 23.4602 33.7451 22.0948V19.6173C33.7451 18.7521 33.3656 17.9677 32.7575 17.4055L23.9329 8.50274V6.95825C23.9329 6.10574 23.2 5.41377 22.2974 5.41377C21.3949 5.41377 20.6622 6.1058 20.6622 6.95825V8.50274H16.7372ZM18.6996 11.5919C21.591 11.5919 23.9329 13.8037 23.9329 16.5344C23.9329 19.2651 21.5911 21.477 18.6996 21.477C15.8082 21.477 13.4664 19.2652 13.4664 16.5344C13.4664 13.8036 15.8082 11.5919 18.6996 11.5919Z" fill="currentColor"/>
</symbol><symbol id="pin-map" viewBox="0 0 56 56"><g fill="none">
<circle cx="28" cy="28" r="27" fill="white"/>
<circle cx="28" cy="27" r="12" fill="#182044"/>
</g></symbol><symbol id="plane" viewBox="-0.5 -1.5 25 25" preserveAspectRatio="xMidYMid meet">
  <path d="M18.8325 1.1803C18.028 1.36073 17.2197 1.542 16.919 2.03873L14.592 6.41228L2.09704 9.21442L1.5908 10.6118L11.1522 11.4647L9.52997 15.2509L5.90387 16.0641L4.99347 17.5521L7.60943 17.8201L7.90773 19.0371C8.04137 19.4685 8.51044 19.7565 8.91083 19.6667L10.1195 19.3956L11.5207 21.6492L12.4311 20.1611L11.5362 16.5101L14.1615 13.3536L19.1709 21.6468L20.1811 20.5656L17.0983 7.9887L19.9293 3.93144C20.2337 3.43387 20.0351 2.6238 19.8356 1.80994C19.7368 1.40681 19.2329 1.09051 18.8325 1.1803Z" fill="currentColor"/>
</symbol><symbol id="points" viewBox="0 0 34 15"><g fill="currentColor">
  <ellipse cx="3.34054" cy="7" rx="3.34054" ry="3"/>
  <ellipse cx="16.7027" cy="7" rx="3.34054" ry="3"/>
  <ellipse cx="30.0649" cy="7" rx="3.34054" ry="3"/>
</g></symbol><symbol id="polygon-small" viewBox="0 0 9 5"><g fill="none">
<path d="M4.33008 4.5L-4.95911e-05 0L8.66021 0L4.33008 4.5Z" fill="currentColor"/>
</g></symbol><symbol id="polygon" viewBox="0 0 11 14"><g fill="none">
<path d="M10.7512 7L0.305502 13.0622V0.937822L10.7512 7Z" fill="currentColor"/>
</g></symbol><symbol id="run" viewBox="0 0 25 25">
  <g transform="translate(1 0.5)">
    <path d="M15.7523 6C16.7564 6 17.5704 5.10457 17.5704 4C17.5704 2.89543 16.7564 2 15.7523 2C14.7481 2 13.9341 2.89543 13.9341 4C13.9341 5.10457 14.7481 6 15.7523 6Z" fill="currentColor"/>
    <path d="M14.6408 10.969C14.8495 11.311 15.1489 11.5742 15.4982 11.7227C15.8476 11.8712 16.23 11.8978 16.5936 11.799L19.6081 10.97L19.169 9.02997L16.1545 9.85897L14.9008 7.79197C14.633 7.35053 14.2173 7.04354 13.7445 6.93797L10.2481 6.16797C9.85697 6.08162 9.45087 6.13933 9.09251 6.33217C8.73415 6.52502 8.44349 6.84229 8.26539 7.23497L6.75812 10.551L8.38448 11.446L9.89176 8.12897L11.6799 8.52297L7.0563 17H3.02539V19H7.0563C7.69085 19 8.28812 18.628 8.61539 18.029L10.359 14.833L15.0581 15.867L16.709 21.316L18.4327 20.683L16.7827 15.235C16.6808 14.9005 16.5007 14.6014 16.2603 14.3679C16.02 14.1345 15.7279 13.9748 15.4136 13.905L12.6508 13.298L14.2618 10.344L14.6408 10.969Z" fill="currentColor"/>
  </g>
</symbol><symbol id="telegram" viewBox="0 0 32 32"><g fill="none">
<path d="M29.2599 3.68657C28.9724 3.44827 28.6258 3.29221 28.2568 3.23494C27.8878 3.17766 27.5102 3.2213 27.1639 3.36124L3.27462 13.0052C2.88858 13.1639 2.55992 13.4362 2.33226 13.786C2.10461 14.1358 1.98874 14.5466 2.00002 14.9638C2.0113 15.381 2.14921 15.7849 2.39544 16.1219C2.64167 16.4589 2.98457 16.713 3.37861 16.8506L8.53328 18.6399L11.3266 27.8746C11.3319 27.8932 11.3493 27.9052 11.3573 27.9226C11.3861 27.9963 11.4281 28.064 11.4813 28.1226C11.5621 28.2128 11.6664 28.2789 11.7826 28.3132C11.7959 28.3186 11.8053 28.3306 11.8186 28.3332H11.8266L11.8306 28.3346C11.9338 28.3568 12.041 28.3513 12.1413 28.3186C12.1519 28.3159 12.1626 28.3159 12.1746 28.3119C12.2709 28.2781 12.3581 28.2224 12.4293 28.1492C12.4373 28.1399 12.4506 28.1386 12.4586 28.1306L16.4759 23.6959L22.3386 28.2359C22.6946 28.5146 23.1333 28.6652 23.5853 28.6652C24.5639 28.6652 25.4079 27.9799 25.6093 27.0239L29.9586 5.66657C30.0324 5.30401 30.0064 4.92821 29.8833 4.57927C29.7603 4.23034 29.5448 3.92134 29.2599 3.68524V3.68657ZM12.7839 20.3932L11.8413 24.9759L9.87461 18.4719L19.6279 13.3919L12.9653 20.0559C12.873 20.1481 12.8099 20.2654 12.7839 20.3932V20.3932ZM24.3026 26.7559C24.2776 26.8768 24.2219 26.9893 24.1409 27.0824C24.0598 27.1756 23.9562 27.2463 23.8399 27.2879C23.7265 27.3316 23.6037 27.3449 23.4835 27.3267C23.3633 27.3085 23.25 27.2593 23.1546 27.1839L16.8039 22.2652C16.6712 22.1628 16.5047 22.1141 16.3376 22.1289C16.1706 22.1437 16.0152 22.221 15.9026 22.3452L13.1066 25.4266L14.0479 20.8572L23.6333 11.2706C23.7455 11.158 23.8138 11.0089 23.8259 10.8504C23.8379 10.6918 23.7928 10.5342 23.6989 10.4059C23.6049 10.2776 23.4681 10.1872 23.3133 10.1509C23.1585 10.1146 22.9958 10.1348 22.8546 10.2079L9.03728 17.4052L3.81462 15.5892C3.67614 15.5435 3.55537 15.4558 3.4691 15.3382C3.38283 15.2206 3.33535 15.0791 3.33328 14.9332C3.32664 14.7861 3.36594 14.6406 3.44574 14.5168C3.52554 14.3931 3.64188 14.2972 3.77862 14.2426L27.6639 4.59857C27.7863 4.54657 27.9208 4.52975 28.0523 4.55001C28.1837 4.57027 28.3069 4.6268 28.4079 4.71324C28.5084 4.79456 28.5843 4.90221 28.6272 5.02417C28.6701 5.14613 28.6782 5.27761 28.6506 5.40391L24.3026 26.7572V26.7559Z" fill="currentColor"/>
</g></symbol><symbol id="user" viewBox="0 0 28 24"><g fill="none">
<path opacity="0.1" d="M9.03134 6.7388C9.03134 9.35037 11.3266 11.4756 14.1471 11.4756C16.9677 11.4756 19.263 9.35037 19.263 6.7388C19.263 4.12722 16.9677 2.00195 14.1471 2.00195C11.3266 2.00195 9.03134 4.12722 9.03134 6.7388ZM23.2419 22.002H24.3788V20.9493C24.3788 16.8872 20.8079 13.5809 16.4208 13.5809H11.8735C7.48523 13.5809 3.91553 16.8872 3.91553 20.9493V22.002H23.2419Z" fill="#192144"/>
</g></symbol><symbol id="vk" viewBox="0 0 32 32"><g fill="none">
<path d="M24.9461 23.7775C24.2083 23.761 23.4891 23.5431 22.8661 23.1475C22.2157 22.7079 21.6184 22.1945 21.0861 21.6175C20.6461 21.1775 19.9161 20.4375 19.6361 20.4375C19.3561 20.4375 19.1561 21.3575 19.1661 22.0075C19.1703 22.4562 19.0021 22.8894 18.6961 23.2175C18.3481 23.5018 17.9234 23.6758 17.4761 23.7175H15.5561C12.7965 23.6568 10.1541 22.59 8.12606 20.7175C4.44606 17.3475 1.28606 10.9075 1.15606 10.6275C1.03206 10.3936 0.980135 10.1282 1.00683 9.86481C1.03353 9.6014 1.13765 9.35181 1.30606 9.14753C1.6872 8.82967 2.16985 8.65933 2.66606 8.66753H6.74606H6.86606C7.20364 8.71678 7.52722 8.836 7.81606 9.01753C8.08788 9.1998 8.30552 9.45198 8.44606 9.74753C8.87724 10.6706 9.37175 11.5627 9.92606 12.4175C11.2361 14.4175 11.8161 14.8775 12.0261 14.9775C12.2597 14.0398 12.324 13.0679 12.2161 12.1075C12.2511 11.6701 12.179 11.2308 12.0061 10.8275C11.7865 10.6519 11.5169 10.5504 11.2361 10.5375L10.5061 9.84753C10.3661 9.18753 11.0961 8.61753 11.6061 8.39753C12.6238 8.07863 13.6916 7.94982 14.7561 8.01753H15.4661C16.1881 7.99873 16.9099 8.06587 17.6161 8.21753C19.3161 8.57753 19.2561 9.94753 19.1861 11.5275C19.1861 11.9875 19.1361 12.5275 19.1361 13.1475C19.1361 13.2975 19.1361 13.4575 19.1361 13.6275C19.0967 14.0629 19.1271 14.5017 19.2261 14.9275C20.0586 14.2311 20.7597 13.3912 21.2961 12.4475C21.875 11.5553 22.3832 10.6191 22.8161 9.64753C22.9479 9.34025 23.1739 9.08272 23.4614 8.91201C23.7489 8.7413 24.0832 8.6662 24.4161 8.69753H28.6961C28.8224 8.68547 28.9497 8.68547 29.0761 8.69753C30.0761 8.69753 30.6661 8.98753 30.9061 9.54753C31.1461 10.1075 31.0761 11.2075 28.5461 14.1575L27.5461 15.2875C27.0616 15.758 26.6443 16.293 26.3061 16.8775C26.6848 17.3081 27.1147 17.6909 27.5861 18.0175C28.7353 18.8835 29.7468 19.9186 30.5861 21.0875C30.7829 21.3148 30.9117 21.593 30.9576 21.8901C31.0036 22.1873 30.965 22.4914 30.8461 22.7675C30.6365 23.0734 30.3561 23.3241 30.0288 23.4982C29.7014 23.6723 29.3368 23.7647 28.9661 23.7675L25.1761 23.8175L24.9461 23.7775ZM19.6361 18.9375C20.5361 18.9375 21.3161 19.7275 22.1461 20.5575C22.5944 21.0471 23.0977 21.4833 23.6461 21.8575C24.0607 22.1333 24.5481 22.2795 25.0461 22.2775H25.1461L28.9461 22.2275C29.1335 22.2168 29.317 22.1692 29.4861 22.0875L29.3861 21.9275C28.6291 20.8959 27.7263 19.9797 26.7061 19.2075C25.5161 18.2075 24.9061 17.7375 24.8361 16.9675C24.7661 16.1975 25.3261 15.5275 26.4461 14.2575L27.4461 13.1475C28.2903 12.2864 28.9834 11.2891 29.4961 10.1975C29.2729 10.1843 29.0492 10.1843 28.8261 10.1975H24.4561C24.377 10.1799 24.2951 10.1799 24.2161 10.1975C23.7532 11.259 23.2012 12.2793 22.5661 13.2475C20.6761 16.0675 19.7861 16.4475 19.1561 16.4475C18.9607 16.4475 18.7684 16.3995 18.5961 16.3075C17.5961 15.7375 17.5961 14.4675 17.6561 13.5475C17.6561 13.3975 17.6561 13.2475 17.6561 13.1175C17.6561 12.4675 17.6561 11.9075 17.7061 11.4275C17.7861 9.74753 17.7061 9.73753 17.3261 9.64753C16.7138 9.52655 16.09 9.4729 15.4661 9.48753H14.7761C14.1411 9.47441 13.5061 9.50784 12.8761 9.58753C12.9715 9.65784 13.0558 9.74212 13.1261 9.83753C13.5385 10.4879 13.7442 11.2479 13.7161 12.0175C13.8461 13.6675 13.7761 15.8175 12.7161 16.3375C12.5284 16.4254 12.3233 16.4698 12.1161 16.4675C11.1861 16.4675 10.2661 15.5875 8.69606 13.2075C8.09358 12.2962 7.5556 11.3439 7.08606 10.3575L7.00606 10.2575C6.90508 10.2061 6.79736 10.169 6.68606 10.1475H2.68606H2.61606C3.20606 11.3675 6.00606 16.7675 9.13606 19.5975C10.8936 21.2122 13.1708 22.1451 15.5561 22.2275H17.4061C17.5004 22.2074 17.5914 22.1737 17.6761 22.1275C17.6761 22.1275 17.6761 22.1275 17.6761 22.0375C17.6761 21.7675 17.6761 19.4375 19.2561 19.0375C19.3784 18.9894 19.5059 18.9558 19.6361 18.9375Z" fill="currentColor"/>
</g></symbol><symbol id="vkontakte" viewBox="0 0 32 32"><g fill="none">
<path d="M24.9461 23.7775C24.2083 23.761 23.4891 23.5431 22.8661 23.1475C22.2157 22.7079 21.6184 22.1945 21.0861 21.6175C20.6461 21.1775 19.9161 20.4375 19.6361 20.4375C19.3561 20.4375 19.1561 21.3575 19.1661 22.0075C19.1703 22.4562 19.0021 22.8894 18.6961 23.2175C18.3481 23.5018 17.9234 23.6758 17.4761 23.7175H15.5561C12.7965 23.6568 10.1541 22.59 8.12606 20.7175C4.44606 17.3475 1.28606 10.9075 1.15606 10.6275C1.03206 10.3936 0.980135 10.1282 1.00683 9.86481C1.03353 9.6014 1.13765 9.35181 1.30606 9.14753C1.6872 8.82967 2.16985 8.65933 2.66606 8.66753H6.74606H6.86606C7.20364 8.71678 7.52722 8.836 7.81606 9.01753C8.08788 9.1998 8.30552 9.45198 8.44606 9.74753C8.87724 10.6706 9.37175 11.5627 9.92606 12.4175C11.2361 14.4175 11.8161 14.8775 12.0261 14.9775C12.2597 14.0398 12.324 13.0679 12.2161 12.1075C12.2511 11.6701 12.179 11.2308 12.0061 10.8275C11.7865 10.6519 11.5169 10.5504 11.2361 10.5375L10.5061 9.84753C10.3661 9.18753 11.0961 8.61753 11.6061 8.39753C12.6238 8.07863 13.6916 7.94982 14.7561 8.01753H15.4661C16.1881 7.99873 16.9099 8.06587 17.6161 8.21753C19.3161 8.57753 19.2561 9.94753 19.1861 11.5275C19.1861 11.9875 19.1361 12.5275 19.1361 13.1475C19.1361 13.2975 19.1361 13.4575 19.1361 13.6275C19.0967 14.0629 19.1271 14.5017 19.2261 14.9275C20.0586 14.2311 20.7597 13.3912 21.2961 12.4475C21.875 11.5553 22.3832 10.6191 22.8161 9.64753C22.9479 9.34025 23.1739 9.08272 23.4614 8.91201C23.7489 8.7413 24.0832 8.6662 24.4161 8.69753H28.6961C28.8224 8.68547 28.9497 8.68547 29.0761 8.69753C30.0761 8.69753 30.6661 8.98753 30.9061 9.54753C31.1461 10.1075 31.0761 11.2075 28.5461 14.1575L27.5461 15.2875C27.0616 15.758 26.6443 16.293 26.3061 16.8775C26.6848 17.3081 27.1147 17.6909 27.5861 18.0175C28.7353 18.8835 29.7468 19.9186 30.5861 21.0875C30.7829 21.3148 30.9117 21.593 30.9576 21.8901C31.0036 22.1873 30.965 22.4914 30.8461 22.7675C30.6365 23.0734 30.3561 23.3241 30.0288 23.4982C29.7014 23.6723 29.3368 23.7647 28.9661 23.7675L25.1761 23.8175L24.9461 23.7775ZM19.6361 18.9375C20.5361 18.9375 21.3161 19.7275 22.1461 20.5575C22.5944 21.0471 23.0977 21.4833 23.6461 21.8575C24.0607 22.1333 24.5481 22.2795 25.0461 22.2775H25.1461L28.9461 22.2275C29.1335 22.2168 29.317 22.1692 29.4861 22.0875L29.3861 21.9275C28.6291 20.8959 27.7263 19.9797 26.7061 19.2075C25.5161 18.2075 24.9061 17.7375 24.8361 16.9675C24.7661 16.1975 25.3261 15.5275 26.4461 14.2575L27.4461 13.1475C28.2903 12.2864 28.9834 11.2891 29.4961 10.1975C29.2729 10.1843 29.0492 10.1843 28.8261 10.1975H24.4561C24.377 10.1799 24.2951 10.1799 24.2161 10.1975C23.7532 11.259 23.2012 12.2793 22.5661 13.2475C20.6761 16.0675 19.7861 16.4475 19.1561 16.4475C18.9607 16.4475 18.7684 16.3995 18.5961 16.3075C17.5961 15.7375 17.5961 14.4675 17.6561 13.5475C17.6561 13.3975 17.6561 13.2475 17.6561 13.1175C17.6561 12.4675 17.6561 11.9075 17.7061 11.4275C17.7861 9.74753 17.7061 9.73753 17.3261 9.64753C16.7138 9.52655 16.09 9.4729 15.4661 9.48753H14.7761C14.1411 9.47441 13.5061 9.50784 12.8761 9.58753C12.9715 9.65784 13.0558 9.74212 13.1261 9.83753C13.5385 10.4879 13.7442 11.2479 13.7161 12.0175C13.8461 13.6675 13.7761 15.8175 12.7161 16.3375C12.5284 16.4254 12.3233 16.4698 12.1161 16.4675C11.1861 16.4675 10.2661 15.5875 8.69606 13.2075C8.09358 12.2962 7.5556 11.3439 7.08606 10.3575L7.00606 10.2575C6.90508 10.2061 6.79736 10.169 6.68606 10.1475H2.68606H2.61606C3.20606 11.3675 6.00606 16.7675 9.13606 19.5975C10.8936 21.2122 13.1708 22.1451 15.5561 22.2275H17.4061C17.5004 22.2074 17.5914 22.1737 17.6761 22.1275C17.6761 22.1275 17.6761 22.1275 17.6761 22.0375C17.6761 21.7675 17.6761 19.4375 19.2561 19.0375C19.3784 18.9894 19.5059 18.9558 19.6361 18.9375Z" fill="currentColor"/>
</g></symbol><symbol id="youtube" viewBox="0 0 32 32"><g fill="none">
<path d="M20.275 15.5873L14.275 11.5873C14.1998 11.5372 14.1124 11.5085 14.0222 11.5041C13.932 11.4997 13.8422 11.5198 13.7625 11.5623C13.6826 11.6039 13.6158 11.6668 13.5694 11.744C13.5231 11.8212 13.4991 11.9098 13.5 11.9998V19.9998C13.4991 20.0899 13.5231 20.1784 13.5694 20.2557C13.6158 20.3329 13.6826 20.3958 13.7625 20.4373C13.8361 20.4754 13.9172 20.4967 14 20.4998C14.0988 20.5016 14.1954 20.4709 14.275 20.4123L20.275 16.4123C20.3447 16.3684 20.4022 16.3075 20.442 16.2354C20.4818 16.1633 20.5027 16.0822 20.5027 15.9998C20.5027 15.9174 20.4818 15.8364 20.442 15.7642C20.4022 15.6921 20.3447 15.6312 20.275 15.5873V15.5873ZM14.5 19.0623V12.9373L19.1 15.9998L14.5 19.0623ZM28.8125 8.84983C28.7092 8.46871 28.5189 8.11677 28.2564 7.82177C27.9939 7.52676 27.6665 7.29674 27.3 7.14983C23.075 5.52483 16.2875 5.54983 16 5.54983C15.7125 5.54983 8.925 5.52483 4.7 7.14983C4.33348 7.29674 4.00609 7.52676 3.74362 7.82177C3.48115 8.11677 3.29078 8.46871 3.1875 8.84983C2.875 10.0623 2.5 12.2873 2.5 15.9998C2.5 19.7123 2.875 21.9373 3.1875 23.1498C3.29078 23.5309 3.48115 23.8829 3.74362 24.1779C4.00609 24.4729 4.33348 24.7029 4.7 24.8498C8.925 26.4748 15.7125 26.4498 16 26.4498H16.0875C16.95 26.4498 23.2875 26.3998 27.3 24.8498C27.6665 24.7029 27.9939 24.4729 28.2564 24.1779C28.5189 23.8829 28.7092 23.5309 28.8125 23.1498C29.125 21.9373 29.5 19.7123 29.5 15.9998C29.5 12.2873 29.125 10.0623 28.8125 8.84983V8.84983ZM27.8375 22.8998C27.7774 23.1274 27.6647 23.3376 27.5083 23.5135C27.352 23.6894 27.1564 23.826 26.9375 23.9123C22.8875 25.4748 16.075 25.4498 16 25.4498C15.925 25.4498 9.1125 25.4748 5.0625 23.9123C4.84358 23.826 4.64804 23.6894 4.49169 23.5135C4.33534 23.3376 4.22257 23.1274 4.1625 22.8998C3.8625 21.7373 3.5 19.5998 3.5 15.9998C3.5 12.3998 3.8625 10.2623 4.1625 9.09983C4.22257 8.87229 4.33534 8.66208 4.49169 8.48619C4.64804 8.3103 4.84358 8.17366 5.0625 8.08733C9.1125 6.52483 15.925 6.54983 16 6.54983C16.075 6.54983 22.8875 6.52483 26.9375 8.08733C27.1564 8.17366 27.352 8.3103 27.5083 8.48619C27.6647 8.66208 27.7774 8.87229 27.8375 9.09983C28.1375 10.2623 28.5 12.3998 28.5 15.9998C28.5 19.5998 28.1375 21.7373 27.8375 22.8998Z" fill="currentColor"/>
</g></symbol></svg>